<?xml version="1.0" encoding="UTF-8"?>
<svg xmlns="http://www.w3.org/2000/svg" width="640" height="400" viewBox="0 0 640 400">
  <rect width="100%" height="100%" fill="#ffffff"/>
  <text x="340" y="20" text-anchor="middle" font-size="14" font-weight="bold" fill="#111111">iris t-SNE embedding (perplexity 30)</text>
  <rect x="64" y="36" width="552" height="312" fill="none" stroke="#999999" stroke-width="1"/>
  <line x1="64" y1="308.378" x2="616" y2="308.378" stroke="#e0e0e0" stroke-width="1"/>
  <line x1="64" y1="262.807" x2="616" y2="262.807" stroke="#e0e0e0" stroke-width="1"/>
  <line x1="64" y1="217.236" x2="616" y2="217.236" stroke="#e0e0e0" stroke-width="1"/>
  <line x1="64" y1="171.664" x2="616" y2="171.664" stroke="#e0e0e0" stroke-width="1"/>
  <line x1="64" y1="126.093" x2="616" y2="126.093" stroke="#e0e0e0" stroke-width="1"/>
  <line x1="64" y1="80.5211" x2="616" y2="80.5211" stroke="#e0e0e0" stroke-width="1"/>
  <line x1="90.7614" y1="36" x2="90.7614" y2="348" stroke="#e0e0e0" stroke-width="1"/>
  <line x1="181.165" y1="36" x2="181.165" y2="348" stroke="#e0e0e0" stroke-width="1"/>
  <line x1="271.568" y1="36" x2="271.568" y2="348" stroke="#e0e0e0" stroke-width="1"/>
  <line x1="361.972" y1="36" x2="361.972" y2="348" stroke="#e0e0e0" stroke-width="1"/>
  <line x1="452.375" y1="36" x2="452.375" y2="348" stroke="#e0e0e0" stroke-width="1"/>
  <line x1="542.779" y1="36" x2="542.779" y2="348" stroke="#e0e0e0" stroke-width="1"/>
  <line x1="64" y1="348" x2="616" y2="348" stroke="#111111" stroke-width="1"/>
  <line x1="64" y1="36" x2="64" y2="348" stroke="#111111" stroke-width="1"/>
  <text x="58" y="311.878" text-anchor="end" font-size="10" fill="#333333">-10</text>
  <text x="58" y="266.307" text-anchor="end" font-size="10" fill="#333333">-5</text>
  <text x="58" y="220.736" text-anchor="end" font-size="10" fill="#333333">0</text>
  <text x="58" y="175.164" text-anchor="end" font-size="10" fill="#333333">5</text>
  <text x="58" y="129.593" text-anchor="end" font-size="10" fill="#333333">10</text>
  <text x="58" y="84.0211" text-anchor="end" font-size="10" fill="#333333">15</text>
  <text x="90.7614" y="364" text-anchor="middle" font-size="10" fill="#333333">-15</text>
  <text x="181.165" y="364" text-anchor="middle" font-size="10" fill="#333333">-10</text>
  <text x="271.568" y="364" text-anchor="middle" font-size="10" fill="#333333">-5</text>
  <text x="361.972" y="364" text-anchor="middle" font-size="10" fill="#333333">0</text>
  <text x="452.375" y="364" text-anchor="middle" font-size="10" fill="#333333">5</text>
  <text x="542.779" y="364" text-anchor="middle" font-size="10" fill="#333333">10</text>
  <text x="340" y="390" text-anchor="middle" font-size="12" fill="#111111">dim1</text>
  <text x="16" y="192" text-anchor="middle" font-size="12" fill="#111111" transform="rotate(-90 16 192)">dim2</text>
  <circle cx="126.141" cy="75.7299" r="4" fill="#1f77b4" fill-opacity="0.85" stroke="#ffffff" stroke-width="0.5"/>
  <circle cx="170.491" cy="101.451" r="4" fill="#1f77b4" fill-opacity="0.85" stroke="#ffffff" stroke-width="0.5"/>
  <circle cx="146.312" cy="98.3729" r="4" fill="#1f77b4" fill-opacity="0.85" stroke="#ffffff" stroke-width="0.5"/>
  <circle cx="152.491" cy="104.412" r="4" fill="#1f77b4" fill-opacity="0.85" stroke="#ffffff" stroke-width="0.5"/>
  <circle cx="113.15" cy="74.5321" r="4" fill="#1f77b4" fill-opacity="0.85" stroke="#ffffff" stroke-width="0.5"/>
  <circle cx="101.673" cy="58.7403" r="4" fill="#1f77b4" fill-opacity="0.85" stroke="#ffffff" stroke-width="0.5"/>
  <circle cx="125.669" cy="93.7618" r="4" fill="#1f77b4" fill-opacity="0.85" stroke="#ffffff" stroke-width="0.5"/>
  <circle cx="134.504" cy="83.3953" r="4" fill="#1f77b4" fill-opacity="0.85" stroke="#ffffff" stroke-width="0.5"/>
  <circle cx="165.184" cy="111.263" r="4" fill="#1f77b4" fill-opacity="0.85" stroke="#ffffff" stroke-width="0.5"/>
  <circle cx="162.929" cy="96.5554" r="4" fill="#1f77b4" fill-opacity="0.85" stroke="#ffffff" stroke-width="0.5"/>
  <circle cx="117.285" cy="62.8603" r="4" fill="#1f77b4" fill-opacity="0.85" stroke="#ffffff" stroke-width="0.5"/>
  <circle cx="129.466" cy="88.8717" r="4" fill="#1f77b4" fill-opacity="0.85" stroke="#ffffff" stroke-width="0.5"/>
  <circle cx="166.04" cy="104.278" r="4" fill="#1f77b4" fill-opacity="0.85" stroke="#ffffff" stroke-width="0.5"/>
  <circle cx="153.357" cy="111.553" r="4" fill="#1f77b4" fill-opacity="0.85" stroke="#ffffff" stroke-width="0.5"/>
  <circle cx="103.953" cy="52.0652" r="4" fill="#1f77b4" fill-opacity="0.85" stroke="#ffffff" stroke-width="0.5"/>
  <circle cx="90.9852" cy="50.1818" r="4" fill="#1f77b4" fill-opacity="0.85" stroke="#ffffff" stroke-width="0.5"/>
  <circle cx="102.756" cy="58.2968" r="4" fill="#1f77b4" fill-opacity="0.85" stroke="#ffffff" stroke-width="0.5"/>
  <circle cx="125.765" cy="76.0884" r="4" fill="#1f77b4" fill-opacity="0.85" stroke="#ffffff" stroke-width="0.5"/>
  <circle cx="113.638" cy="56.2197" r="4" fill="#1f77b4" fill-opacity="0.85" stroke="#ffffff" stroke-width="0.5"/>
  <circle cx="101.13" cy="65.8931" r="4" fill="#1f77b4" fill-opacity="0.85" stroke="#ffffff" stroke-width="0.5"/>
  <circle cx="143.208" cy="71.8392" r="4" fill="#1f77b4" fill-opacity="0.85" stroke="#ffffff" stroke-width="0.5"/>
  <circle cx="107.41" cy="69.5366" r="4" fill="#1f77b4" fill-opacity="0.85" stroke="#ffffff" stroke-width="0.5"/>
  <circle cx="103.832" cy="84.3419" r="4" fill="#1f77b4" fill-opacity="0.85" stroke="#ffffff" stroke-width="0.5"/>
  <circle cx="151.109" cy="82.3799" r="4" fill="#1f77b4" fill-opacity="0.85" stroke="#ffffff" stroke-width="0.5"/>
  <circle cx="128.837" cy="89.2525" r="4" fill="#1f77b4" fill-opacity="0.85" stroke="#ffffff" stroke-width="0.5"/>
  <circle cx="172.967" cy="98.6288" r="4" fill="#1f77b4" fill-opacity="0.85" stroke="#ffffff" stroke-width="0.5"/>
  <circle cx="133.947" cy="83.0719" r="4" fill="#1f77b4" fill-opacity="0.85" stroke="#ffffff" stroke-width="0.5"/>
  <circle cx="129.036" cy="72.7059" r="4" fill="#1f77b4" fill-opacity="0.85" stroke="#ffffff" stroke-width="0.5"/>
  <circle cx="140.271" cy="77.1933" r="4" fill="#1f77b4" fill-opacity="0.85" stroke="#ffffff" stroke-width="0.5"/>
  <circle cx="146.369" cy="97.8973" r="4" fill="#1f77b4" fill-opacity="0.85" stroke="#ffffff" stroke-width="0.5"/>
  <circle cx="157.561" cy="99.8032" r="4" fill="#1f77b4" fill-opacity="0.85" stroke="#ffffff" stroke-width="0.5"/>
  <circle cx="143.927" cy="72.0724" r="4" fill="#1f77b4" fill-opacity="0.85" stroke="#ffffff" stroke-width="0.5"/>
  <circle cx="89.0909" cy="57.3494" r="4" fill="#1f77b4" fill-opacity="0.85" stroke="#ffffff" stroke-width="0.5"/>
  <circle cx="92.4719" cy="52.8556" r="4" fill="#1f77b4" fill-opacity="0.85" stroke="#ffffff" stroke-width="0.5"/>
  <circle cx="161.916" cy="96.4265" r="4" fill="#1f77b4" fill-opacity="0.85" stroke="#ffffff" stroke-width="0.5"/>
  <circle cx="155.858" cy="91.2188" r="4" fill="#1f77b4" fill-opacity="0.85" stroke="#ffffff" stroke-width="0.5"/>
  <circle cx="133.879" cy="66.583" r="4" fill="#1f77b4" fill-opacity="0.85" stroke="#ffffff" stroke-width="0.5"/>
  <circle cx="108.248" cy="77.4008" r="4" fill="#1f77b4" fill-opacity="0.85" stroke="#ffffff" stroke-width="0.5"/>
  <circle cx="156.141" cy="109.713" r="4" fill="#1f77b4" fill-opacity="0.85" stroke="#ffffff" stroke-width="0.5"/>
  <circle cx="138.135" cy="80.0666" r="4" fill="#1f77b4" fill-opacity="0.85" stroke="#ffffff" stroke-width="0.5"/>
  <circle cx="121.937" cy="79.5873" r="4" fill="#1f77b4" fill-opacity="0.85" stroke="#ffffff" stroke-width="0.5"/>
  <circle cx="180.893" cy="118.712" r="4" fill="#1f77b4" fill-opacity="0.85" stroke="#ffffff" stroke-width="0.5"/>
  <circle cx="141.04" cy="105.774" r="4" fill="#1f77b4" fill-opacity="0.85" stroke="#ffffff" stroke-width="0.5"/>
  <circle cx="117.071" cy="81.5408" r="4" fill="#1f77b4" fill-opacity="0.85" stroke="#ffffff" stroke-width="0.5"/>
  <circle cx="96.3805" cy="66.2501" r="4" fill="#1f77b4" fill-opacity="0.85" stroke="#ffffff" stroke-width="0.5"/>
  <circle cx="166.517" cy="104.16" r="4" fill="#1f77b4" fill-opacity="0.85" stroke="#ffffff" stroke-width="0.5"/>
  <circle cx="100.959" cy="65.9467" r="4" fill="#1f77b4" fill-opacity="0.85" stroke="#ffffff" stroke-width="0.5"/>
  <circle cx="142.989" cy="101.372" r="4" fill="#1f77b4" fill-opacity="0.85" stroke="#ffffff" stroke-width="0.5"/>
  <circle cx="115.038" cy="65.005" r="4" fill="#1f77b4" fill-opacity="0.85" stroke="#ffffff" stroke-width="0.5"/>
  <circle cx="145.435" cy="87.4928" r="4" fill="#1f77b4" fill-opacity="0.85" stroke="#ffffff" stroke-width="0.5"/>
  <circle cx="530.192" cy="275.483" r="4" fill="#ff7f0e" fill-opacity="0.85" stroke="#ffffff" stroke-width="0.5"/>
  <circle cx="510.236" cy="279.421" r="4" fill="#ff7f0e" fill-opacity="0.85" stroke="#ffffff" stroke-width="0.5"/>
  <circle cx="528.237" cy="278.197" r="4" fill="#ff7f0e" fill-opacity="0.85" stroke="#ffffff" stroke-width="0.5"/>
  <circle cx="394.25" cy="242.324" r="4" fill="#ff7f0e" fill-opacity="0.85" stroke="#ffffff" stroke-width="0.5"/>
  <circle cx="478.344" cy="273.166" r="4" fill="#ff7f0e" fill-opacity="0.85" stroke="#ffffff" stroke-width="0.5"/>
  <circle cx="417.137" cy="266.657" r="4" fill="#ff7f0e" fill-opacity="0.85" stroke="#ffffff" stroke-width="0.5"/>
  <circle cx="509.53" cy="283.741" r="4" fill="#ff7f0e" fill-opacity="0.85" stroke="#ffffff" stroke-width="0.5"/>
  <circle cx="371.529" cy="243.828" r="4" fill="#ff7f0e" fill-opacity="0.85" stroke="#ffffff" stroke-width="0.5"/>
  <circle cx="489.349" cy="270.221" r="4" fill="#ff7f0e" fill-opacity="0.85" stroke="#ffffff" stroke-width="0.5"/>
  <circle cx="382.957" cy="260.593" r="4" fill="#ff7f0e" fill-opacity="0.85" stroke="#ffffff" stroke-width="0.5"/>
  <circle cx="376.272" cy="237.246" r="4" fill="#ff7f0e" fill-opacity="0.85" stroke="#ffffff" stroke-width="0.5"/>
  <circle cx="435.11" cy="275.984" r="4" fill="#ff7f0e" fill-opacity="0.85" stroke="#ffffff" stroke-width="0.5"/>
  <circle cx="411.686" cy="239.565" r="4" fill="#ff7f0e" fill-opacity="0.85" stroke="#ffffff" stroke-width="0.5"/>
  <circle cx="453.396" cy="274.781" r="4" fill="#ff7f0e" fill-opacity="0.85" stroke="#ffffff" stroke-width="0.5"/>
  <circle cx="403.647" cy="270.539" r="4" fill="#ff7f0e" fill-opacity="0.85" stroke="#ffffff" stroke-width="0.5"/>
  <circle cx="515.621" cy="273.399" r="4" fill="#ff7f0e" fill-opacity="0.85" stroke="#ffffff" stroke-width="0.5"/>
  <circle cx="419.281" cy="278.915" r="4" fill="#ff7f0e" fill-opacity="0.85" stroke="#ffffff" stroke-width="0.5"/>
  <circle cx="410.959" cy="257.752" r="4" fill="#ff7f0e" fill-opacity="0.85" stroke="#ffffff" stroke-width="0.5"/>
  <circle cx="429.936" cy="240.037" r="4" fill="#ff7f0e" fill-opacity="0.85" stroke="#ffffff" stroke-width="0.5"/>
  <circle cx="395.439" cy="249.706" r="4" fill="#ff7f0e" fill-opacity="0.85" stroke="#ffffff" stroke-width="0.5"/>
  <circle cx="492.372" cy="287.554" r="4" fill="#ff7f0e" fill-opacity="0.85" stroke="#ffffff" stroke-width="0.5"/>
  <circle cx="437.965" cy="265.983" r="4" fill="#ff7f0e" fill-opacity="0.85" stroke="#ffffff" stroke-width="0.5"/>
  <circle cx="451.284" cy="252.954" r="4" fill="#ff7f0e" fill-opacity="0.85" stroke="#ffffff" stroke-width="0.5"/>
  <circle cx="445.889" cy="268.213" r="4" fill="#ff7f0e" fill-opacity="0.85" stroke="#ffffff" stroke-width="0.5"/>
  <circle cx="471.935" cy="269.651" r="4" fill="#ff7f0e" fill-opacity="0.85" stroke="#ffffff" stroke-width="0.5"/>
  <circle cx="502.874" cy="271.945" r="4" fill="#ff7f0e" fill-opacity="0.85" stroke="#ffffff" stroke-width="0.5"/>
  <circle cx="493.064" cy="268.643" r="4" fill="#ff7f0e" fill-opacity="0.85" stroke="#ffffff" stroke-width="0.5"/>
  <circle cx="523.141" cy="288.247" r="4" fill="#ff7f0e" fill-opacity="0.85" stroke="#ffffff" stroke-width="0.5"/>
  <circle cx="446.072" cy="276.111" r="4" fill="#ff7f0e" fill-opacity="0.85" stroke="#ffffff" stroke-width="0.5"/>
  <circle cx="400.766" cy="251.847" r="4" fill="#ff7f0e" fill-opacity="0.85" stroke="#ffffff" stroke-width="0.5"/>
  <circle cx="390.456" cy="245.81" r="4" fill="#ff7f0e" fill-opacity="0.85" stroke="#ffffff" stroke-width="0.5"/>
  <circle cx="389.441" cy="245.149" r="4" fill="#ff7f0e" fill-opacity="0.85" stroke="#ffffff" stroke-width="0.5"/>
  <circle cx="409.518" cy="259.617" r="4" fill="#ff7f0e" fill-opacity="0.85" stroke="#ffffff" stroke-width="0.5"/>
  <circle cx="447.115" cy="290.214" r="4" fill="#ff7f0e" fill-opacity="0.85" stroke="#ffffff" stroke-width="0.5"/>
  <circle cx="409.429" cy="279.435" r="4" fill="#ff7f0e" fill-opacity="0.85" stroke="#ffffff" stroke-width="0.5"/>
  <circle cx="503.131" cy="284.76" r="4" fill="#ff7f0e" fill-opacity="0.85" stroke="#ffffff" stroke-width="0.5"/>
  <circle cx="519.593" cy="276.818" r="4" fill="#ff7f0e" fill-opacity="0.85" stroke="#ffffff" stroke-width="0.5"/>
  <circle cx="429.679" cy="241.258" r="4" fill="#ff7f0e" fill-opacity="0.85" stroke="#ffffff" stroke-width="0.5"/>
  <circle cx="412.451" cy="274.876" r="4" fill="#ff7f0e" fill-opacity="0.85" stroke="#ffffff" stroke-width="0.5"/>
  <circle cx="389.279" cy="251.895" r="4" fill="#ff7f0e" fill-opacity="0.85" stroke="#ffffff" stroke-width="0.5"/>
  <circle cx="393.333" cy="256.72" r="4" fill="#ff7f0e" fill-opacity="0.85" stroke="#ffffff" stroke-width="0.5"/>
  <circle cx="456.547" cy="274.877" r="4" fill="#ff7f0e" fill-opacity="0.85" stroke="#ffffff" stroke-width="0.5"/>
  <circle cx="405.618" cy="254.879" r="4" fill="#ff7f0e" fill-opacity="0.85" stroke="#ffffff" stroke-width="0.5"/>
  <circle cx="374.257" cy="241.958" r="4" fill="#ff7f0e" fill-opacity="0.85" stroke="#ffffff" stroke-width="0.5"/>
  <circle cx="400.673" cy="261.981" r="4" fill="#ff7f0e" fill-opacity="0.85" stroke="#ffffff" stroke-width="0.5"/>
  <circle cx="418.522" cy="273.604" r="4" fill="#ff7f0e" fill-opacity="0.85" stroke="#ffffff" stroke-width="0.5"/>
  <circle cx="418.057" cy="270.647" r="4" fill="#ff7f0e" fill-opacity="0.85" stroke="#ffffff" stroke-width="0.5"/>
  <circle cx="455.571" cy="269.815" r="4" fill="#ff7f0e" fill-opacity="0.85" stroke="#ffffff" stroke-width="0.5"/>
  <circle cx="373.596" cy="246.706" r="4" fill="#ff7f0e" fill-opacity="0.85" stroke="#ffffff" stroke-width="0.5"/>
  <circle cx="411.423" cy="265.93" r="4" fill="#ff7f0e" fill-opacity="0.85" stroke="#ffffff" stroke-width="0.5"/>
  <circle cx="559.992" cy="299.903" r="4" fill="#2ca02c" fill-opacity="0.85" stroke="#ffffff" stroke-width="0.5"/>
  <circle cx="439.968" cy="299.621" r="4" fill="#2ca02c" fill-opacity="0.85" stroke="#ffffff" stroke-width="0.5"/>
  <circle cx="562.144" cy="318.885" r="4" fill="#2ca02c" fill-opacity="0.85" stroke="#ffffff" stroke-width="0.5"/>
  <circle cx="493.726" cy="300.118" r="4" fill="#2ca02c" fill-opacity="0.85" stroke="#ffffff" stroke-width="0.5"/>
  <circle cx="524.177" cy="309.008" r="4" fill="#2ca02c" fill-opacity="0.85" stroke="#ffffff" stroke-width="0.5"/>
  <circle cx="578.355" cy="326.298" r="4" fill="#2ca02c" fill-opacity="0.85" stroke="#ffffff" stroke-width="0.5"/>
  <circle cx="369.022" cy="257.783" r="4" fill="#2ca02c" fill-opacity="0.85" stroke="#ffffff" stroke-width="0.5"/>
  <circle cx="581.912" cy="321.181" r="4" fill="#2ca02c" fill-opacity="0.85" stroke="#ffffff" stroke-width="0.5"/>
  <circle cx="481.564" cy="255.454" r="4" fill="#2ca02c" fill-opacity="0.85" stroke="#ffffff" stroke-width="0.5"/>
  <circle cx="544.615" cy="328.264" r="4" fill="#2ca02c" fill-opacity="0.85" stroke="#ffffff" stroke-width="0.5"/>
  <circle cx="533.307" cy="299.769" r="4" fill="#2ca02c" fill-opacity="0.85" stroke="#ffffff" stroke-width="0.5"/>
  <circle cx="471.999" cy="302.028" r="4" fill="#2ca02c" fill-opacity="0.85" stroke="#ffffff" stroke-width="0.5"/>
  <circle cx="533.654" cy="312.059" r="4" fill="#2ca02c" fill-opacity="0.85" stroke="#ffffff" stroke-width="0.5"/>
  <circle cx="430.955" cy="301.02" r="4" fill="#2ca02c" fill-opacity="0.85" stroke="#ffffff" stroke-width="0.5"/>
  <circle cx="445.348" cy="308.761" r="4" fill="#2ca02c" fill-opacity="0.85" stroke="#ffffff" stroke-width="0.5"/>
  <circle cx="544.241" cy="301.889" r="4" fill="#2ca02c" fill-opacity="0.85" stroke="#ffffff" stroke-width="0.5"/>
  <circle cx="513.31" cy="299.281" r="4" fill="#2ca02c" fill-opacity="0.85" stroke="#ffffff" stroke-width="0.5"/>
  <circle cx="545.179" cy="333.33" r="4" fill="#2ca02c" fill-opacity="0.85" stroke="#ffffff" stroke-width="0.5"/>
  <circle cx="590.909" cy="329.121" r="4" fill="#2ca02c" fill-opacity="0.85" stroke="#ffffff" stroke-width="0.5"/>
  <circle cx="429.734" cy="239.871" r="4" fill="#2ca02c" fill-opacity="0.85" stroke="#ffffff" stroke-width="0.5"/>
  <circle cx="552.691" cy="312.413" r="4" fill="#2ca02c" fill-opacity="0.85" stroke="#ffffff" stroke-width="0.5"/>
  <circle cx="436.096" cy="302.497" r="4" fill="#2ca02c" fill-opacity="0.85" stroke="#ffffff" stroke-width="0.5"/>
  <circle cx="586.995" cy="327.047" r="4" fill="#2ca02c" fill-opacity="0.85" stroke="#ffffff" stroke-width="0.5"/>
  <circle cx="461.217" cy="295.926" r="4" fill="#2ca02c" fill-opacity="0.85" stroke="#ffffff" stroke-width="0.5"/>
  <circle cx="551.553" cy="305.881" r="4" fill="#2ca02c" fill-opacity="0.85" stroke="#ffffff" stroke-width="0.5"/>
  <circle cx="569.1" cy="317.485" r="4" fill="#2ca02c" fill-opacity="0.85" stroke="#ffffff" stroke-width="0.5"/>
  <circle cx="463.334" cy="292.967" r="4" fill="#2ca02c" fill-opacity="0.85" stroke="#ffffff" stroke-width="0.5"/>
  <circle cx="481.532" cy="290.549" r="4" fill="#2ca02c" fill-opacity="0.85" stroke="#ffffff" stroke-width="0.5"/>
  <circle cx="492.961" cy="307.585" r="4" fill="#2ca02c" fill-opacity="0.85" stroke="#ffffff" stroke-width="0.5"/>
  <circle cx="579.887" cy="316.42" r="4" fill="#2ca02c" fill-opacity="0.85" stroke="#ffffff" stroke-width="0.5"/>
  <circle cx="585.267" cy="323.114" r="4" fill="#2ca02c" fill-opacity="0.85" stroke="#ffffff" stroke-width="0.5"/>
  <circle cx="545.477" cy="333.818" r="4" fill="#2ca02c" fill-opacity="0.85" stroke="#ffffff" stroke-width="0.5"/>
  <circle cx="495.695" cy="309.229" r="4" fill="#2ca02c" fill-opacity="0.85" stroke="#ffffff" stroke-width="0.5"/>
  <circle cx="464.31" cy="281.574" r="4" fill="#2ca02c" fill-opacity="0.85" stroke="#ffffff" stroke-width="0.5"/>
  <circle cx="444.011" cy="287.419" r="4" fill="#2ca02c" fill-opacity="0.85" stroke="#ffffff" stroke-width="0.5"/>
  <circle cx="575.992" cy="327.644" r="4" fill="#2ca02c" fill-opacity="0.85" stroke="#ffffff" stroke-width="0.5"/>
  <circle cx="558.648" cy="298.417" r="4" fill="#2ca02c" fill-opacity="0.85" stroke="#ffffff" stroke-width="0.5"/>
  <circle cx="517.346" cy="297.562" r="4" fill="#2ca02c" fill-opacity="0.85" stroke="#ffffff" stroke-width="0.5"/>
  <circle cx="477.384" cy="289.107" r="4" fill="#2ca02c" fill-opacity="0.85" stroke="#ffffff" stroke-width="0.5"/>
  <circle cx="544.831" cy="313.986" r="4" fill="#2ca02c" fill-opacity="0.85" stroke="#ffffff" stroke-width="0.5"/>
  <circle cx="542.992" cy="309.461" r="4" fill="#2ca02c" fill-opacity="0.85" stroke="#ffffff" stroke-width="0.5"/>
  <circle cx="542.673" cy="313.957" r="4" fill="#2ca02c" fill-opacity="0.85" stroke="#ffffff" stroke-width="0.5"/>
  <circle cx="439.986" cy="299.613" r="4" fill="#2ca02c" fill-opacity="0.85" stroke="#ffffff" stroke-width="0.5"/>
  <circle cx="553.108" cy="310.378" r="4" fill="#2ca02c" fill-opacity="0.85" stroke="#ffffff" stroke-width="0.5"/>
  <circle cx="557.94" cy="305.647" r="4" fill="#2ca02c" fill-opacity="0.85" stroke="#ffffff" stroke-width="0.5"/>
  <circle cx="531.937" cy="311.333" r="4" fill="#2ca02c" fill-opacity="0.85" stroke="#ffffff" stroke-width="0.5"/>
  <circle cx="456.139" cy="300.15" r="4" fill="#2ca02c" fill-opacity="0.85" stroke="#ffffff" stroke-width="0.5"/>
  <circle cx="517.823" cy="303.32" r="4" fill="#2ca02c" fill-opacity="0.85" stroke="#ffffff" stroke-width="0.5"/>
  <circle cx="556.227" cy="296.533" r="4" fill="#2ca02c" fill-opacity="0.85" stroke="#ffffff" stroke-width="0.5"/>
  <circle cx="476.98" cy="290.302" r="4" fill="#2ca02c" fill-opacity="0.85" stroke="#ffffff" stroke-width="0.5"/>
  <rect x="489" y="44" width="115" height="64" fill="#ffffff" fill-opacity="0.88" stroke="#cccccc" stroke-width="1"/>
  <circle cx="508" cy="59" r="4" fill="#1f77b4" fill-opacity="0.85"/>
  <text x="527" y="63" font-size="11" fill="#111111">setosa</text>
  <circle cx="508" cy="75" r="4" fill="#ff7f0e" fill-opacity="0.85"/>
  <text x="527" y="79" font-size="11" fill="#111111">versicolor</text>
  <circle cx="508" cy="91" r="4" fill="#2ca02c" fill-opacity="0.85"/>
  <text x="527" y="95" font-size="11" fill="#111111">virginica</text>
</svg>
