<?xml version="1.0" encoding="UTF-8"?>
<svg xmlns="http://www.w3.org/2000/svg" width="640" height="400" viewBox="0 0 640 400">
  <rect width="100%" height="100%" fill="#ffffff"/>
  <text x="340" y="20" text-anchor="middle" font-size="14" font-weight="bold" fill="#111111">month_index distribution</text>
  <rect x="64" y="36" width="552" height="312" fill="none" stroke="#999999" stroke-width="1"/>
  <line x1="64" y1="333.818" x2="616" y2="333.818" stroke="#e0e0e0" stroke-width="1"/>
  <line x1="64" y1="277.091" x2="616" y2="277.091" stroke="#e0e0e0" stroke-width="1"/>
  <line x1="64" y1="220.364" x2="616" y2="220.364" stroke="#e0e0e0" stroke-width="1"/>
  <line x1="64" y1="163.636" x2="616" y2="163.636" stroke="#e0e0e0" stroke-width="1"/>
  <line x1="64" y1="106.909" x2="616" y2="106.909" stroke="#e0e0e0" stroke-width="1"/>
  <line x1="64" y1="50.1818" x2="616" y2="50.1818" stroke="#e0e0e0" stroke-width="1"/>
  <line x1="128.449" y1="36" x2="128.449" y2="348" stroke="#e0e0e0" stroke-width="1"/>
  <line x1="226.845" y1="36" x2="226.845" y2="348" stroke="#e0e0e0" stroke-width="1"/>
  <line x1="325.241" y1="36" x2="325.241" y2="348" stroke="#e0e0e0" stroke-width="1"/>
  <line x1="423.636" y1="36" x2="423.636" y2="348" stroke="#e0e0e0" stroke-width="1"/>
  <line x1="522.032" y1="36" x2="522.032" y2="348" stroke="#e0e0e0" stroke-width="1"/>
  <line x1="64" y1="348" x2="616" y2="348" stroke="#111111" stroke-width="1"/>
  <line x1="64" y1="36" x2="64" y2="348" stroke="#111111" stroke-width="1"/>
  <text x="58" y="337.318" text-anchor="end" font-size="10" fill="#333333">0</text>
  <text x="58" y="280.591" text-anchor="end" font-size="10" fill="#333333">1</text>
  <text x="58" y="223.864" text-anchor="end" font-size="10" fill="#333333">2</text>
  <text x="58" y="167.136" text-anchor="end" font-size="10" fill="#333333">3</text>
  <text x="58" y="110.409" text-anchor="end" font-size="10" fill="#333333">4</text>
  <text x="58" y="53.6818" text-anchor="end" font-size="10" fill="#333333">5</text>
  <text x="128.449" y="364" text-anchor="middle" font-size="10" fill="#333333">20</text>
  <text x="226.845" y="364" text-anchor="middle" font-size="10" fill="#333333">40</text>
  <text x="325.241" y="364" text-anchor="middle" font-size="10" fill="#333333">60</text>
  <text x="423.636" y="364" text-anchor="middle" font-size="10" fill="#333333">80</text>
  <text x="522.032" y="364" text-anchor="middle" font-size="10" fill="#333333">100</text>
  <rect x="78.0909" y="50.1818" width="22" height="283.636" fill="#1f77b4" opacity="0.65"/>
  <rect x="99" y="106.909" width="22" height="226.909" fill="#1f77b4" opacity="0.65"/>
  <rect x="119.909" y="106.909" width="22" height="226.909" fill="#1f77b4" opacity="0.65"/>
  <rect x="140.818" y="106.909" width="22" height="226.909" fill="#1f77b4" opacity="0.65"/>
  <rect x="161.727" y="50.1818" width="22" height="283.636" fill="#1f77b4" opacity="0.65"/>
  <rect x="182.636" y="106.909" width="22" height="226.909" fill="#1f77b4" opacity="0.65"/>
  <rect x="203.545" y="106.909" width="22" height="226.909" fill="#1f77b4" opacity="0.65"/>
  <rect x="224.455" y="106.909" width="22" height="226.909" fill="#1f77b4" opacity="0.65"/>
  <rect x="245.364" y="50.1818" width="22" height="283.636" fill="#1f77b4" opacity="0.65"/>
  <rect x="266.273" y="106.909" width="22" height="226.909" fill="#1f77b4" opacity="0.65"/>
  <rect x="287.182" y="106.909" width="22" height="226.909" fill="#1f77b4" opacity="0.65"/>
  <rect x="308.091" y="106.909" width="22" height="226.909" fill="#1f77b4" opacity="0.65"/>
  <rect x="329" y="50.1818" width="22" height="283.636" fill="#1f77b4" opacity="0.65"/>
  <rect x="349.909" y="106.909" width="22" height="226.909" fill="#1f77b4" opacity="0.65"/>
  <rect x="370.818" y="106.909" width="22" height="226.909" fill="#1f77b4" opacity="0.65"/>
  <rect x="391.727" y="106.909" width="22" height="226.909" fill="#1f77b4" opacity="0.65"/>
  <rect x="412.636" y="50.1818" width="22" height="283.636" fill="#1f77b4" opacity="0.65"/>
  <rect x="433.545" y="106.909" width="22" height="226.909" fill="#1f77b4" opacity="0.65"/>
  <rect x="454.455" y="106.909" width="22" height="226.909" fill="#1f77b4" opacity="0.65"/>
  <rect x="475.364" y="106.909" width="22" height="226.909" fill="#1f77b4" opacity="0.65"/>
  <rect x="496.273" y="50.1818" width="22" height="283.636" fill="#1f77b4" opacity="0.65"/>
  <rect x="517.182" y="106.909" width="22" height="226.909" fill="#1f77b4" opacity="0.65"/>
  <rect x="538.091" y="106.909" width="22" height="226.909" fill="#1f77b4" opacity="0.65"/>
  <rect x="559" y="50.1818" width="22" height="283.636" fill="#1f77b4" opacity="0.65"/>
</svg>
