<?xml version="1.0" encoding="UTF-8"?>
<svg xmlns="http://www.w3.org/2000/svg" width="640" height="400" viewBox="0 0 640 400">
  <rect width="100%" height="100%" fill="#ffffff"/>
  <text x="340" y="20" text-anchor="middle" font-size="14" font-weight="bold" fill="#111111">Feature 5 versus target</text>
  <rect x="64" y="36" width="552" height="312" fill="none" stroke="#999999" stroke-width="1"/>
  <line x1="64" y1="333.818" x2="616" y2="333.818" stroke="#e0e0e0" stroke-width="1"/>
  <line x1="64" y1="277.091" x2="616" y2="277.091" stroke="#e0e0e0" stroke-width="1"/>
  <line x1="64" y1="220.364" x2="616" y2="220.364" stroke="#e0e0e0" stroke-width="1"/>
  <line x1="64" y1="163.636" x2="616" y2="163.636" stroke="#e0e0e0" stroke-width="1"/>
  <line x1="64" y1="106.909" x2="616" y2="106.909" stroke="#e0e0e0" stroke-width="1"/>
  <line x1="64" y1="50.1818" x2="616" y2="50.1818" stroke="#e0e0e0" stroke-width="1"/>
  <line x1="150.269" y1="36" x2="150.269" y2="348" stroke="#e0e0e0" stroke-width="1"/>
  <line x1="265.439" y1="36" x2="265.439" y2="348" stroke="#e0e0e0" stroke-width="1"/>
  <line x1="380.609" y1="36" x2="380.609" y2="348" stroke="#e0e0e0" stroke-width="1"/>
  <line x1="495.779" y1="36" x2="495.779" y2="348" stroke="#e0e0e0" stroke-width="1"/>
  <line x1="610.949" y1="36" x2="610.949" y2="348" stroke="#e0e0e0" stroke-width="1"/>
  <line x1="64" y1="348" x2="616" y2="348" stroke="#111111" stroke-width="1"/>
  <line x1="64" y1="36" x2="64" y2="348" stroke="#111111" stroke-width="1"/>
  <text x="58" y="337.318" text-anchor="end" font-size="10" fill="#333333">0</text>
  <text x="58" y="280.591" text-anchor="end" font-size="10" fill="#333333">0.2</text>
  <text x="58" y="223.864" text-anchor="end" font-size="10" fill="#333333">0.4</text>
  <text x="58" y="167.136" text-anchor="end" font-size="10" fill="#333333">0.6</text>
  <text x="58" y="110.409" text-anchor="end" font-size="10" fill="#333333">0.8</text>
  <text x="58" y="53.6818" text-anchor="end" font-size="10" fill="#333333">1</text>
  <text x="150.269" y="364" text-anchor="middle" font-size="10" fill="#333333">0.05</text>
  <text x="265.439" y="364" text-anchor="middle" font-size="10" fill="#333333">0.1</text>
  <text x="380.609" y="364" text-anchor="middle" font-size="10" fill="#333333">0.15</text>
  <text x="495.779" y="364" text-anchor="middle" font-size="10" fill="#333333">0.2</text>
  <text x="610.949" y="364" text-anchor="middle" font-size="10" fill="#333333">0.25</text>
  <circle cx="327.631" cy="333.818" r="4" fill="#1f77b4" fill-opacity="0.85" stroke="#ffffff" stroke-width="0.5"/>
  <circle cx="184.636" cy="333.818" r="4" fill="#1f77b4" fill-opacity="0.85" stroke="#ffffff" stroke-width="0.5"/>
  <circle cx="526.875" cy="50.1818" r="4" fill="#1f77b4" fill-opacity="0.85" stroke="#ffffff" stroke-width="0.5"/>
  <circle cx="379.688" cy="50.1818" r="4" fill="#1f77b4" fill-opacity="0.85" stroke="#ffffff" stroke-width="0.5"/>
  <circle cx="288.012" cy="50.1818" r="4" fill="#1f77b4" fill-opacity="0.85" stroke="#ffffff" stroke-width="0.5"/>
  <circle cx="121.845" cy="333.818" r="4" fill="#1f77b4" fill-opacity="0.85" stroke="#ffffff" stroke-width="0.5"/>
  <circle cx="315.653" cy="50.1818" r="4" fill="#1f77b4" fill-opacity="0.85" stroke="#ffffff" stroke-width="0.5"/>
  <circle cx="539.543" cy="50.1818" r="4" fill="#1f77b4" fill-opacity="0.85" stroke="#ffffff" stroke-width="0.5"/>
  <circle cx="171.99" cy="333.818" r="4" fill="#1f77b4" fill-opacity="0.85" stroke="#ffffff" stroke-width="0.5"/>
  <circle cx="244.524" cy="333.818" r="4" fill="#1f77b4" fill-opacity="0.85" stroke="#ffffff" stroke-width="0.5"/>
  <circle cx="212.415" cy="333.818" r="4" fill="#1f77b4" fill-opacity="0.85" stroke="#ffffff" stroke-width="0.5"/>
  <circle cx="174.662" cy="333.818" r="4" fill="#1f77b4" fill-opacity="0.85" stroke="#ffffff" stroke-width="0.5"/>
  <circle cx="144.534" cy="333.818" r="4" fill="#1f77b4" fill-opacity="0.85" stroke="#ffffff" stroke-width="0.5"/>
  <circle cx="122.375" cy="333.818" r="4" fill="#1f77b4" fill-opacity="0.85" stroke="#ffffff" stroke-width="0.5"/>
  <circle cx="156.534" cy="333.818" r="4" fill="#1f77b4" fill-opacity="0.85" stroke="#ffffff" stroke-width="0.5"/>
  <circle cx="241.553" cy="333.818" r="4" fill="#1f77b4" fill-opacity="0.85" stroke="#ffffff" stroke-width="0.5"/>
  <circle cx="236.67" cy="333.818" r="4" fill="#1f77b4" fill-opacity="0.85" stroke="#ffffff" stroke-width="0.5"/>
  <circle cx="214.142" cy="333.818" r="4" fill="#1f77b4" fill-opacity="0.85" stroke="#ffffff" stroke-width="0.5"/>
  <circle cx="143.382" cy="333.818" r="4" fill="#1f77b4" fill-opacity="0.85" stroke="#ffffff" stroke-width="0.5"/>
  <circle cx="360.569" cy="333.818" r="4" fill="#1f77b4" fill-opacity="0.85" stroke="#ffffff" stroke-width="0.5"/>
  <circle cx="155.659" cy="333.818" r="4" fill="#1f77b4" fill-opacity="0.85" stroke="#ffffff" stroke-width="0.5"/>
  <circle cx="387.749" cy="333.818" r="4" fill="#1f77b4" fill-opacity="0.85" stroke="#ffffff" stroke-width="0.5"/>
  <circle cx="192.398" cy="333.818" r="4" fill="#1f77b4" fill-opacity="0.85" stroke="#ffffff" stroke-width="0.5"/>
  <circle cx="229.137" cy="50.1818" r="4" fill="#1f77b4" fill-opacity="0.85" stroke="#ffffff" stroke-width="0.5"/>
  <circle cx="276.265" cy="333.818" r="4" fill="#1f77b4" fill-opacity="0.85" stroke="#ffffff" stroke-width="0.5"/>
  <circle cx="254.982" cy="333.818" r="4" fill="#1f77b4" fill-opacity="0.85" stroke="#ffffff" stroke-width="0.5"/>
  <circle cx="250.743" cy="333.818" r="4" fill="#1f77b4" fill-opacity="0.85" stroke="#ffffff" stroke-width="0.5"/>
  <circle cx="388.671" cy="333.818" r="4" fill="#1f77b4" fill-opacity="0.85" stroke="#ffffff" stroke-width="0.5"/>
  <circle cx="200.138" cy="333.818" r="4" fill="#1f77b4" fill-opacity="0.85" stroke="#ffffff" stroke-width="0.5"/>
  <circle cx="252.655" cy="333.818" r="4" fill="#1f77b4" fill-opacity="0.85" stroke="#ffffff" stroke-width="0.5"/>
  <circle cx="343.524" cy="333.818" r="4" fill="#1f77b4" fill-opacity="0.85" stroke="#ffffff" stroke-width="0.5"/>
  <circle cx="233.33" cy="333.818" r="4" fill="#1f77b4" fill-opacity="0.85" stroke="#ffffff" stroke-width="0.5"/>
  <circle cx="151.536" cy="333.818" r="4" fill="#1f77b4" fill-opacity="0.85" stroke="#ffffff" stroke-width="0.5"/>
  <circle cx="197.65" cy="333.818" r="4" fill="#1f77b4" fill-opacity="0.85" stroke="#ffffff" stroke-width="0.5"/>
  <circle cx="208.43" cy="333.818" r="4" fill="#1f77b4" fill-opacity="0.85" stroke="#ffffff" stroke-width="0.5"/>
  <circle cx="209.42" cy="333.818" r="4" fill="#1f77b4" fill-opacity="0.85" stroke="#ffffff" stroke-width="0.5"/>
  <circle cx="128.11" cy="333.818" r="4" fill="#1f77b4" fill-opacity="0.85" stroke="#ffffff" stroke-width="0.5"/>
  <circle cx="232.685" cy="333.818" r="4" fill="#1f77b4" fill-opacity="0.85" stroke="#ffffff" stroke-width="0.5"/>
  <circle cx="269.355" cy="333.818" r="4" fill="#1f77b4" fill-opacity="0.85" stroke="#ffffff" stroke-width="0.5"/>
  <circle cx="192.076" cy="333.818" r="4" fill="#1f77b4" fill-opacity="0.85" stroke="#ffffff" stroke-width="0.5"/>
  <circle cx="186.548" cy="333.818" r="4" fill="#1f77b4" fill-opacity="0.85" stroke="#ffffff" stroke-width="0.5"/>
  <circle cx="228.677" cy="333.818" r="4" fill="#1f77b4" fill-opacity="0.85" stroke="#ffffff" stroke-width="0.5"/>
  <circle cx="313.58" cy="333.818" r="4" fill="#1f77b4" fill-opacity="0.85" stroke="#ffffff" stroke-width="0.5"/>
  <circle cx="335.232" cy="333.818" r="4" fill="#1f77b4" fill-opacity="0.85" stroke="#ffffff" stroke-width="0.5"/>
  <circle cx="224.001" cy="333.818" r="4" fill="#1f77b4" fill-opacity="0.85" stroke="#ffffff" stroke-width="0.5"/>
  <circle cx="215.893" cy="333.818" r="4" fill="#1f77b4" fill-opacity="0.85" stroke="#ffffff" stroke-width="0.5"/>
  <circle cx="189.081" cy="333.818" r="4" fill="#1f77b4" fill-opacity="0.85" stroke="#ffffff" stroke-width="0.5"/>
  <circle cx="176.436" cy="333.818" r="4" fill="#1f77b4" fill-opacity="0.85" stroke="#ffffff" stroke-width="0.5"/>
  <circle cx="451.323" cy="333.818" r="4" fill="#1f77b4" fill-opacity="0.85" stroke="#ffffff" stroke-width="0.5"/>
  <circle cx="254.129" cy="333.818" r="4" fill="#1f77b4" fill-opacity="0.85" stroke="#ffffff" stroke-width="0.5"/>
  <circle cx="253.047" cy="333.818" r="4" fill="#1f77b4" fill-opacity="0.85" stroke="#ffffff" stroke-width="0.5"/>
  <circle cx="175.491" cy="333.818" r="4" fill="#1f77b4" fill-opacity="0.85" stroke="#ffffff" stroke-width="0.5"/>
  <circle cx="193.78" cy="333.818" r="4" fill="#1f77b4" fill-opacity="0.85" stroke="#ffffff" stroke-width="0.5"/>
  <circle cx="296.765" cy="333.818" r="4" fill="#1f77b4" fill-opacity="0.85" stroke="#ffffff" stroke-width="0.5"/>
  <circle cx="253.6" cy="333.818" r="4" fill="#1f77b4" fill-opacity="0.85" stroke="#ffffff" stroke-width="0.5"/>
  <circle cx="254.129" cy="333.818" r="4" fill="#1f77b4" fill-opacity="0.85" stroke="#ffffff" stroke-width="0.5"/>
  <circle cx="153.471" cy="333.818" r="4" fill="#1f77b4" fill-opacity="0.85" stroke="#ffffff" stroke-width="0.5"/>
  <circle cx="303.906" cy="333.818" r="4" fill="#1f77b4" fill-opacity="0.85" stroke="#ffffff" stroke-width="0.5"/>
  <circle cx="209.904" cy="333.818" r="4" fill="#1f77b4" fill-opacity="0.85" stroke="#ffffff" stroke-width="0.5"/>
  <circle cx="335.693" cy="333.818" r="4" fill="#1f77b4" fill-opacity="0.85" stroke="#ffffff" stroke-width="0.5"/>
  <circle cx="403.413" cy="333.818" r="4" fill="#1f77b4" fill-opacity="0.85" stroke="#ffffff" stroke-width="0.5"/>
  <circle cx="152.872" cy="333.818" r="4" fill="#1f77b4" fill-opacity="0.85" stroke="#ffffff" stroke-width="0.5"/>
  <circle cx="230.842" cy="333.818" r="4" fill="#1f77b4" fill-opacity="0.85" stroke="#ffffff" stroke-width="0.5"/>
  <circle cx="188.943" cy="333.818" r="4" fill="#1f77b4" fill-opacity="0.85" stroke="#ffffff" stroke-width="0.5"/>
  <circle cx="155.82" cy="333.818" r="4" fill="#1f77b4" fill-opacity="0.85" stroke="#ffffff" stroke-width="0.5"/>
  <circle cx="120.74" cy="333.818" r="4" fill="#1f77b4" fill-opacity="0.85" stroke="#ffffff" stroke-width="0.5"/>
  <circle cx="297.917" cy="333.818" r="4" fill="#1f77b4" fill-opacity="0.85" stroke="#ffffff" stroke-width="0.5"/>
  <circle cx="308.052" cy="50.1818" r="4" fill="#1f77b4" fill-opacity="0.85" stroke="#ffffff" stroke-width="0.5"/>
  <circle cx="268.894" cy="333.818" r="4" fill="#1f77b4" fill-opacity="0.85" stroke="#ffffff" stroke-width="0.5"/>
  <circle cx="216.722" cy="333.818" r="4" fill="#1f77b4" fill-opacity="0.85" stroke="#ffffff" stroke-width="0.5"/>
  <circle cx="195.899" cy="333.818" r="4" fill="#1f77b4" fill-opacity="0.85" stroke="#ffffff" stroke-width="0.5"/>
  <circle cx="179.937" cy="50.1818" r="4" fill="#1f77b4" fill-opacity="0.85" stroke="#ffffff" stroke-width="0.5"/>
  <circle cx="167.383" cy="333.818" r="4" fill="#1f77b4" fill-opacity="0.85" stroke="#ffffff" stroke-width="0.5"/>
  <circle cx="237.775" cy="50.1818" r="4" fill="#1f77b4" fill-opacity="0.85" stroke="#ffffff" stroke-width="0.5"/>
  <circle cx="222.941" cy="333.818" r="4" fill="#1f77b4" fill-opacity="0.85" stroke="#ffffff" stroke-width="0.5"/>
  <circle cx="143.244" cy="333.818" r="4" fill="#1f77b4" fill-opacity="0.85" stroke="#ffffff" stroke-width="0.5"/>
  <circle cx="163.214" cy="333.818" r="4" fill="#1f77b4" fill-opacity="0.85" stroke="#ffffff" stroke-width="0.5"/>
  <circle cx="202.165" cy="333.818" r="4" fill="#1f77b4" fill-opacity="0.85" stroke="#ffffff" stroke-width="0.5"/>
  <circle cx="590.909" cy="50.1818" r="4" fill="#1f77b4" fill-opacity="0.85" stroke="#ffffff" stroke-width="0.5"/>
  <circle cx="187.147" cy="333.818" r="4" fill="#1f77b4" fill-opacity="0.85" stroke="#ffffff" stroke-width="0.5"/>
  <circle cx="89.0909" cy="333.818" r="4" fill="#1f77b4" fill-opacity="0.85" stroke="#ffffff" stroke-width="0.5"/>
  <circle cx="221.375" cy="333.818" r="4" fill="#1f77b4" fill-opacity="0.85" stroke="#ffffff" stroke-width="0.5"/>
  <circle cx="278.799" cy="333.818" r="4" fill="#1f77b4" fill-opacity="0.85" stroke="#ffffff" stroke-width="0.5"/>
  <circle cx="201.681" cy="333.818" r="4" fill="#1f77b4" fill-opacity="0.85" stroke="#ffffff" stroke-width="0.5"/>
  <circle cx="178.601" cy="333.818" r="4" fill="#1f77b4" fill-opacity="0.85" stroke="#ffffff" stroke-width="0.5"/>
  <circle cx="194.034" cy="333.818" r="4" fill="#1f77b4" fill-opacity="0.85" stroke="#ffffff" stroke-width="0.5"/>
  <circle cx="299.069" cy="50.1818" r="4" fill="#1f77b4" fill-opacity="0.85" stroke="#ffffff" stroke-width="0.5"/>
  <circle cx="300.911" cy="333.818" r="4" fill="#1f77b4" fill-opacity="0.85" stroke="#ffffff" stroke-width="0.5"/>
  <circle cx="235.748" cy="333.818" r="4" fill="#1f77b4" fill-opacity="0.85" stroke="#ffffff" stroke-width="0.5"/>
  <circle cx="309.664" cy="333.818" r="4" fill="#1f77b4" fill-opacity="0.85" stroke="#ffffff" stroke-width="0.5"/>
  <circle cx="230.934" cy="333.818" r="4" fill="#1f77b4" fill-opacity="0.85" stroke="#ffffff" stroke-width="0.5"/>
  <circle cx="150.131" cy="333.818" r="4" fill="#1f77b4" fill-opacity="0.85" stroke="#ffffff" stroke-width="0.5"/>
  <circle cx="210.71" cy="333.818" r="4" fill="#1f77b4" fill-opacity="0.85" stroke="#ffffff" stroke-width="0.5"/>
  <circle cx="287.552" cy="333.818" r="4" fill="#1f77b4" fill-opacity="0.85" stroke="#ffffff" stroke-width="0.5"/>
  <circle cx="208.522" cy="333.818" r="4" fill="#1f77b4" fill-opacity="0.85" stroke="#ffffff" stroke-width="0.5"/>
  <circle cx="122.928" cy="333.818" r="4" fill="#1f77b4" fill-opacity="0.85" stroke="#ffffff" stroke-width="0.5"/>
  <circle cx="117.423" cy="333.818" r="4" fill="#1f77b4" fill-opacity="0.85" stroke="#ffffff" stroke-width="0.5"/>
  <circle cx="129.239" cy="333.818" r="4" fill="#1f77b4" fill-opacity="0.85" stroke="#ffffff" stroke-width="0.5"/>
  <circle cx="195.07" cy="333.818" r="4" fill="#1f77b4" fill-opacity="0.85" stroke="#ffffff" stroke-width="0.5"/>
  <circle cx="274.422" cy="333.818" r="4" fill="#1f77b4" fill-opacity="0.85" stroke="#ffffff" stroke-width="0.5"/>
  <circle cx="187.815" cy="333.818" r="4" fill="#1f77b4" fill-opacity="0.85" stroke="#ffffff" stroke-width="0.5"/>
  <circle cx="340.299" cy="333.818" r="4" fill="#1f77b4" fill-opacity="0.85" stroke="#ffffff" stroke-width="0.5"/>
  <circle cx="191.892" cy="333.818" r="4" fill="#1f77b4" fill-opacity="0.85" stroke="#ffffff" stroke-width="0.5"/>
  <circle cx="172.635" cy="333.818" r="4" fill="#1f77b4" fill-opacity="0.85" stroke="#ffffff" stroke-width="0.5"/>
  <circle cx="139.305" cy="333.818" r="4" fill="#1f77b4" fill-opacity="0.85" stroke="#ffffff" stroke-width="0.5"/>
  <circle cx="345.137" cy="333.818" r="4" fill="#1f77b4" fill-opacity="0.85" stroke="#ffffff" stroke-width="0.5"/>
  <circle cx="201.727" cy="333.818" r="4" fill="#1f77b4" fill-opacity="0.85" stroke="#ffffff" stroke-width="0.5"/>
  <circle cx="405.025" cy="50.1818" r="4" fill="#1f77b4" fill-opacity="0.85" stroke="#ffffff" stroke-width="0.5"/>
  <circle cx="173.096" cy="333.818" r="4" fill="#1f77b4" fill-opacity="0.85" stroke="#ffffff" stroke-width="0.5"/>
  <circle cx="329.704" cy="50.1818" r="4" fill="#1f77b4" fill-opacity="0.85" stroke="#ffffff" stroke-width="0.5"/>
  <circle cx="561.195" cy="50.1818" r="4" fill="#1f77b4" fill-opacity="0.85" stroke="#ffffff" stroke-width="0.5"/>
  <circle cx="285.709" cy="50.1818" r="4" fill="#1f77b4" fill-opacity="0.85" stroke="#ffffff" stroke-width="0.5"/>
  <circle cx="328.322" cy="50.1818" r="4" fill="#1f77b4" fill-opacity="0.85" stroke="#ffffff" stroke-width="0.5"/>
  <circle cx="299.299" cy="333.818" r="4" fill="#1f77b4" fill-opacity="0.85" stroke="#ffffff" stroke-width="0.5"/>
  <circle cx="225.337" cy="333.818" r="4" fill="#1f77b4" fill-opacity="0.85" stroke="#ffffff" stroke-width="0.5"/>
  <circle cx="178.348" cy="333.818" r="4" fill="#1f77b4" fill-opacity="0.85" stroke="#ffffff" stroke-width="0.5"/>
  <circle cx="332.007" cy="333.818" r="4" fill="#1f77b4" fill-opacity="0.85" stroke="#ffffff" stroke-width="0.5"/>
  <circle cx="210.342" cy="333.818" r="4" fill="#1f77b4" fill-opacity="0.85" stroke="#ffffff" stroke-width="0.5"/>
  <circle cx="143.106" cy="333.818" r="4" fill="#1f77b4" fill-opacity="0.85" stroke="#ffffff" stroke-width="0.5"/>
  <circle cx="201.174" cy="333.818" r="4" fill="#1f77b4" fill-opacity="0.85" stroke="#ffffff" stroke-width="0.5"/>
  <circle cx="124.287" cy="333.818" r="4" fill="#1f77b4" fill-opacity="0.85" stroke="#ffffff" stroke-width="0.5"/>
  <circle cx="128.433" cy="333.818" r="4" fill="#1f77b4" fill-opacity="0.85" stroke="#ffffff" stroke-width="0.5"/>
  <circle cx="212.184" cy="333.818" r="4" fill="#1f77b4" fill-opacity="0.85" stroke="#ffffff" stroke-width="0.5"/>
  <circle cx="255.765" cy="333.818" r="4" fill="#1f77b4" fill-opacity="0.85" stroke="#ffffff" stroke-width="0.5"/>
  <circle cx="267.973" cy="333.818" r="4" fill="#1f77b4" fill-opacity="0.85" stroke="#ffffff" stroke-width="0.5"/>
  <circle cx="120.993" cy="333.818" r="4" fill="#1f77b4" fill-opacity="0.85" stroke="#ffffff" stroke-width="0.5"/>
  <circle cx="307.131" cy="333.818" r="4" fill="#1f77b4" fill-opacity="0.85" stroke="#ffffff" stroke-width="0.5"/>
  <circle cx="150.453" cy="333.818" r="4" fill="#1f77b4" fill-opacity="0.85" stroke="#ffffff" stroke-width="0.5"/>
  <circle cx="421.149" cy="333.818" r="4" fill="#1f77b4" fill-opacity="0.85" stroke="#ffffff" stroke-width="0.5"/>
  <circle cx="261.362" cy="333.818" r="4" fill="#1f77b4" fill-opacity="0.85" stroke="#ffffff" stroke-width="0.5"/>
  <circle cx="165.057" cy="333.818" r="4" fill="#1f77b4" fill-opacity="0.85" stroke="#ffffff" stroke-width="0.5"/>
  <circle cx="228.423" cy="333.818" r="4" fill="#1f77b4" fill-opacity="0.85" stroke="#ffffff" stroke-width="0.5"/>
  <circle cx="178.394" cy="333.818" r="4" fill="#1f77b4" fill-opacity="0.85" stroke="#ffffff" stroke-width="0.5"/>
  <circle cx="143.843" cy="333.818" r="4" fill="#1f77b4" fill-opacity="0.85" stroke="#ffffff" stroke-width="0.5"/>
  <circle cx="155.337" cy="333.818" r="4" fill="#1f77b4" fill-opacity="0.85" stroke="#ffffff" stroke-width="0.5"/>
  <circle cx="191.661" cy="333.818" r="4" fill="#1f77b4" fill-opacity="0.85" stroke="#ffffff" stroke-width="0.5"/>
  <circle cx="268.664" cy="333.818" r="4" fill="#1f77b4" fill-opacity="0.85" stroke="#ffffff" stroke-width="0.5"/>
  <circle cx="188.92" cy="333.818" r="4" fill="#1f77b4" fill-opacity="0.85" stroke="#ffffff" stroke-width="0.5"/>
  <circle cx="212.323" cy="333.818" r="4" fill="#1f77b4" fill-opacity="0.85" stroke="#ffffff" stroke-width="0.5"/>
  <circle cx="166.117" cy="333.818" r="4" fill="#1f77b4" fill-opacity="0.85" stroke="#ffffff" stroke-width="0.5"/>
  <circle cx="156.051" cy="333.818" r="4" fill="#1f77b4" fill-opacity="0.85" stroke="#ffffff" stroke-width="0.5"/>
  <circle cx="118.344" cy="333.818" r="4" fill="#1f77b4" fill-opacity="0.85" stroke="#ffffff" stroke-width="0.5"/>
  <circle cx="156.097" cy="333.818" r="4" fill="#1f77b4" fill-opacity="0.85" stroke="#ffffff" stroke-width="0.5"/>
  <circle cx="116.064" cy="333.818" r="4" fill="#1f77b4" fill-opacity="0.85" stroke="#ffffff" stroke-width="0.5"/>
  <circle cx="172.589" cy="333.818" r="4" fill="#1f77b4" fill-opacity="0.85" stroke="#ffffff" stroke-width="0.5"/>
  <circle cx="169.779" cy="333.818" r="4" fill="#1f77b4" fill-opacity="0.85" stroke="#ffffff" stroke-width="0.5"/>
  <circle cx="123.412" cy="333.818" r="4" fill="#1f77b4" fill-opacity="0.85" stroke="#ffffff" stroke-width="0.5"/>
  <circle cx="292.389" cy="50.1818" r="4" fill="#1f77b4" fill-opacity="0.85" stroke="#ffffff" stroke-width="0.5"/>
  <circle cx="489.329" cy="333.818" r="4" fill="#1f77b4" fill-opacity="0.85" stroke="#ffffff" stroke-width="0.5"/>
  <circle cx="114.659" cy="333.818" r="4" fill="#1f77b4" fill-opacity="0.85" stroke="#ffffff" stroke-width="0.5"/>
  <circle cx="291.007" cy="333.818" r="4" fill="#1f77b4" fill-opacity="0.85" stroke="#ffffff" stroke-width="0.5"/>
  <circle cx="238.581" cy="333.818" r="4" fill="#1f77b4" fill-opacity="0.85" stroke="#ffffff" stroke-width="0.5"/>
  <circle cx="185.857" cy="333.818" r="4" fill="#1f77b4" fill-opacity="0.85" stroke="#ffffff" stroke-width="0.5"/>
  <circle cx="211.632" cy="333.818" r="4" fill="#1f77b4" fill-opacity="0.85" stroke="#ffffff" stroke-width="0.5"/>
  <circle cx="157.318" cy="333.818" r="4" fill="#1f77b4" fill-opacity="0.85" stroke="#ffffff" stroke-width="0.5"/>
  <circle cx="124.748" cy="333.818" r="4" fill="#1f77b4" fill-opacity="0.85" stroke="#ffffff" stroke-width="0.5"/>
  <circle cx="294.231" cy="333.818" r="4" fill="#1f77b4" fill-opacity="0.85" stroke="#ffffff" stroke-width="0.5"/>
  <circle cx="191.247" cy="333.818" r="4" fill="#1f77b4" fill-opacity="0.85" stroke="#ffffff" stroke-width="0.5"/>
  <circle cx="137.785" cy="333.818" r="4" fill="#1f77b4" fill-opacity="0.85" stroke="#ffffff" stroke-width="0.5"/>
  <circle cx="131.888" cy="333.818" r="4" fill="#1f77b4" fill-opacity="0.85" stroke="#ffffff" stroke-width="0.5"/>
  <circle cx="264.633" cy="333.818" r="4" fill="#1f77b4" fill-opacity="0.85" stroke="#ffffff" stroke-width="0.5"/>
  <circle cx="244.639" cy="333.818" r="4" fill="#1f77b4" fill-opacity="0.85" stroke="#ffffff" stroke-width="0.5"/>
  <circle cx="343.524" cy="50.1818" r="4" fill="#1f77b4" fill-opacity="0.85" stroke="#ffffff" stroke-width="0.5"/>
  <circle cx="202.81" cy="333.818" r="4" fill="#1f77b4" fill-opacity="0.85" stroke="#ffffff" stroke-width="0.5"/>
  <circle cx="246.067" cy="333.818" r="4" fill="#1f77b4" fill-opacity="0.85" stroke="#ffffff" stroke-width="0.5"/>
  <circle cx="214.304" cy="333.818" r="4" fill="#1f77b4" fill-opacity="0.85" stroke="#ffffff" stroke-width="0.5"/>
  <circle cx="170.677" cy="333.818" r="4" fill="#1f77b4" fill-opacity="0.85" stroke="#ffffff" stroke-width="0.5"/>
  <circle cx="312.889" cy="333.818" r="4" fill="#1f77b4" fill-opacity="0.85" stroke="#ffffff" stroke-width="0.5"/>
  <circle cx="118.713" cy="333.818" r="4" fill="#1f77b4" fill-opacity="0.85" stroke="#ffffff" stroke-width="0.5"/>
  <circle cx="260.118" cy="50.1818" r="4" fill="#1f77b4" fill-opacity="0.85" stroke="#ffffff" stroke-width="0.5"/>
  <circle cx="174.777" cy="333.818" r="4" fill="#1f77b4" fill-opacity="0.85" stroke="#ffffff" stroke-width="0.5"/>
  <circle cx="274.192" cy="333.818" r="4" fill="#1f77b4" fill-opacity="0.85" stroke="#ffffff" stroke-width="0.5"/>
  <circle cx="161.602" cy="333.818" r="4" fill="#1f77b4" fill-opacity="0.85" stroke="#ffffff" stroke-width="0.5"/>
  <circle cx="172.29" cy="333.818" r="4" fill="#1f77b4" fill-opacity="0.85" stroke="#ffffff" stroke-width="0.5"/>
  <circle cx="96.1393" cy="333.818" r="4" fill="#1f77b4" fill-opacity="0.85" stroke="#ffffff" stroke-width="0.5"/>
  <circle cx="181.895" cy="333.818" r="4" fill="#1f77b4" fill-opacity="0.85" stroke="#ffffff" stroke-width="0.5"/>
  <circle cx="218.265" cy="333.818" r="4" fill="#1f77b4" fill-opacity="0.85" stroke="#ffffff" stroke-width="0.5"/>
  <circle cx="230.151" cy="333.818" r="4" fill="#1f77b4" fill-opacity="0.85" stroke="#ffffff" stroke-width="0.5"/>
  <circle cx="166.301" cy="333.818" r="4" fill="#1f77b4" fill-opacity="0.85" stroke="#ffffff" stroke-width="0.5"/>
  <circle cx="200.368" cy="333.818" r="4" fill="#1f77b4" fill-opacity="0.85" stroke="#ffffff" stroke-width="0.5"/>
  <circle cx="282.945" cy="50.1818" r="4" fill="#1f77b4" fill-opacity="0.85" stroke="#ffffff" stroke-width="0.5"/>
  <circle cx="181.918" cy="333.818" r="4" fill="#1f77b4" fill-opacity="0.85" stroke="#ffffff" stroke-width="0.5"/>
  <circle cx="366.328" cy="333.818" r="4" fill="#1f77b4" fill-opacity="0.85" stroke="#ffffff" stroke-width="0.5"/>
  <circle cx="417.463" cy="333.818" r="4" fill="#1f77b4" fill-opacity="0.85" stroke="#ffffff" stroke-width="0.5"/>
  <circle cx="143.958" cy="333.818" r="4" fill="#1f77b4" fill-opacity="0.85" stroke="#ffffff" stroke-width="0.5"/>
  <circle cx="208.96" cy="333.818" r="4" fill="#1f77b4" fill-opacity="0.85" stroke="#ffffff" stroke-width="0.5"/>
  <circle cx="531.251" cy="50.1818" r="4" fill="#1f77b4" fill-opacity="0.85" stroke="#ffffff" stroke-width="0.5"/>
  <circle cx="291.007" cy="333.818" r="4" fill="#1f77b4" fill-opacity="0.85" stroke="#ffffff" stroke-width="0.5"/>
  <circle cx="198.157" cy="333.818" r="4" fill="#1f77b4" fill-opacity="0.85" stroke="#ffffff" stroke-width="0.5"/>
  <circle cx="282.254" cy="333.818" r="4" fill="#1f77b4" fill-opacity="0.85" stroke="#ffffff" stroke-width="0.5"/>
  <circle cx="333.85" cy="333.818" r="4" fill="#1f77b4" fill-opacity="0.85" stroke="#ffffff" stroke-width="0.5"/>
  <circle cx="215.294" cy="333.818" r="4" fill="#1f77b4" fill-opacity="0.85" stroke="#ffffff" stroke-width="0.5"/>
  <circle cx="291.698" cy="333.818" r="4" fill="#1f77b4" fill-opacity="0.85" stroke="#ffffff" stroke-width="0.5"/>
  <circle cx="338.687" cy="50.1818" r="4" fill="#1f77b4" fill-opacity="0.85" stroke="#ffffff" stroke-width="0.5"/>
  <circle cx="208.822" cy="333.818" r="4" fill="#1f77b4" fill-opacity="0.85" stroke="#ffffff" stroke-width="0.5"/>
  <circle cx="259.865" cy="333.818" r="4" fill="#1f77b4" fill-opacity="0.85" stroke="#ffffff" stroke-width="0.5"/>
  <circle cx="158.584" cy="333.818" r="4" fill="#1f77b4" fill-opacity="0.85" stroke="#ffffff" stroke-width="0.5"/>
  <circle cx="299.299" cy="333.818" r="4" fill="#1f77b4" fill-opacity="0.85" stroke="#ffffff" stroke-width="0.5"/>
  <circle cx="144.925" cy="333.818" r="4" fill="#1f77b4" fill-opacity="0.85" stroke="#ffffff" stroke-width="0.5"/>
  <circle cx="178.647" cy="333.818" r="4" fill="#1f77b4" fill-opacity="0.85" stroke="#ffffff" stroke-width="0.5"/>
  <circle cx="155.843" cy="333.818" r="4" fill="#1f77b4" fill-opacity="0.85" stroke="#ffffff" stroke-width="0.5"/>
  <circle cx="217.045" cy="333.818" r="4" fill="#1f77b4" fill-opacity="0.85" stroke="#ffffff" stroke-width="0.5"/>
  <circle cx="238.627" cy="333.818" r="4" fill="#1f77b4" fill-opacity="0.85" stroke="#ffffff" stroke-width="0.5"/>
  <circle cx="140.388" cy="333.818" r="4" fill="#1f77b4" fill-opacity="0.85" stroke="#ffffff" stroke-width="0.5"/>
  <circle cx="206.933" cy="333.818" r="4" fill="#1f77b4" fill-opacity="0.85" stroke="#ffffff" stroke-width="0.5"/>
  <circle cx="230.911" cy="333.818" r="4" fill="#1f77b4" fill-opacity="0.85" stroke="#ffffff" stroke-width="0.5"/>
  <circle cx="226.65" cy="333.818" r="4" fill="#1f77b4" fill-opacity="0.85" stroke="#ffffff" stroke-width="0.5"/>
  <circle cx="185.419" cy="333.818" r="4" fill="#1f77b4" fill-opacity="0.85" stroke="#ffffff" stroke-width="0.5"/>
  <circle cx="157.479" cy="333.818" r="4" fill="#1f77b4" fill-opacity="0.85" stroke="#ffffff" stroke-width="0.5"/>
  <circle cx="214.856" cy="333.818" r="4" fill="#1f77b4" fill-opacity="0.85" stroke="#ffffff" stroke-width="0.5"/>
  <circle cx="174.524" cy="333.818" r="4" fill="#1f77b4" fill-opacity="0.85" stroke="#ffffff" stroke-width="0.5"/>
  <circle cx="271.198" cy="333.818" r="4" fill="#1f77b4" fill-opacity="0.85" stroke="#ffffff" stroke-width="0.5"/>
  <circle cx="222.135" cy="333.818" r="4" fill="#1f77b4" fill-opacity="0.85" stroke="#ffffff" stroke-width="0.5"/>
  <circle cx="176.966" cy="333.818" r="4" fill="#1f77b4" fill-opacity="0.85" stroke="#ffffff" stroke-width="0.5"/>
  <circle cx="168.558" cy="333.818" r="4" fill="#1f77b4" fill-opacity="0.85" stroke="#ffffff" stroke-width="0.5"/>
  <circle cx="172.796" cy="333.818" r="4" fill="#1f77b4" fill-opacity="0.85" stroke="#ffffff" stroke-width="0.5"/>
  <circle cx="212.968" cy="333.818" r="4" fill="#1f77b4" fill-opacity="0.85" stroke="#ffffff" stroke-width="0.5"/>
  <circle cx="304.136" cy="333.818" r="4" fill="#1f77b4" fill-opacity="0.85" stroke="#ffffff" stroke-width="0.5"/>
  <circle cx="299.299" cy="333.818" r="4" fill="#1f77b4" fill-opacity="0.85" stroke="#ffffff" stroke-width="0.5"/>
  <circle cx="227.041" cy="333.818" r="4" fill="#1f77b4" fill-opacity="0.85" stroke="#ffffff" stroke-width="0.5"/>
  <circle cx="268.433" cy="333.818" r="4" fill="#1f77b4" fill-opacity="0.85" stroke="#ffffff" stroke-width="0.5"/>
  <circle cx="167.383" cy="333.818" r="4" fill="#1f77b4" fill-opacity="0.85" stroke="#ffffff" stroke-width="0.5"/>
  <circle cx="139.259" cy="333.818" r="4" fill="#1f77b4" fill-opacity="0.85" stroke="#ffffff" stroke-width="0.5"/>
  <circle cx="338.226" cy="333.818" r="4" fill="#1f77b4" fill-opacity="0.85" stroke="#ffffff" stroke-width="0.5"/>
  <circle cx="198.042" cy="333.818" r="4" fill="#1f77b4" fill-opacity="0.85" stroke="#ffffff" stroke-width="0.5"/>
  <circle cx="170.885" cy="333.818" r="4" fill="#1f77b4" fill-opacity="0.85" stroke="#ffffff" stroke-width="0.5"/>
  <circle cx="180.904" cy="333.818" r="4" fill="#1f77b4" fill-opacity="0.85" stroke="#ffffff" stroke-width="0.5"/>
  <circle cx="291.467" cy="333.818" r="4" fill="#1f77b4" fill-opacity="0.85" stroke="#ffffff" stroke-width="0.5"/>
  <circle cx="137.877" cy="333.818" r="4" fill="#1f77b4" fill-opacity="0.85" stroke="#ffffff" stroke-width="0.5"/>
  <circle cx="247.426" cy="333.818" r="4" fill="#1f77b4" fill-opacity="0.85" stroke="#ffffff" stroke-width="0.5"/>
  <circle cx="214.764" cy="333.818" r="4" fill="#1f77b4" fill-opacity="0.85" stroke="#ffffff" stroke-width="0.5"/>
  <circle cx="183.668" cy="333.818" r="4" fill="#1f77b4" fill-opacity="0.85" stroke="#ffffff" stroke-width="0.5"/>
  <circle cx="247.979" cy="333.818" r="4" fill="#1f77b4" fill-opacity="0.85" stroke="#ffffff" stroke-width="0.5"/>
  <circle cx="160.174" cy="333.818" r="4" fill="#1f77b4" fill-opacity="0.85" stroke="#ffffff" stroke-width="0.5"/>
  <circle cx="206.15" cy="333.818" r="4" fill="#1f77b4" fill-opacity="0.85" stroke="#ffffff" stroke-width="0.5"/>
  <circle cx="232.593" cy="333.818" r="4" fill="#1f77b4" fill-opacity="0.85" stroke="#ffffff" stroke-width="0.5"/>
  <circle cx="154.991" cy="333.818" r="4" fill="#1f77b4" fill-opacity="0.85" stroke="#ffffff" stroke-width="0.5"/>
  <circle cx="151.951" cy="333.818" r="4" fill="#1f77b4" fill-opacity="0.85" stroke="#ffffff" stroke-width="0.5"/>
  <circle cx="141.654" cy="333.818" r="4" fill="#1f77b4" fill-opacity="0.85" stroke="#ffffff" stroke-width="0.5"/>
  <circle cx="155.406" cy="333.818" r="4" fill="#1f77b4" fill-opacity="0.85" stroke="#ffffff" stroke-width="0.5"/>
  <circle cx="173.165" cy="333.818" r="4" fill="#1f77b4" fill-opacity="0.85" stroke="#ffffff" stroke-width="0.5"/>
  <circle cx="316.805" cy="333.818" r="4" fill="#1f77b4" fill-opacity="0.85" stroke="#ffffff" stroke-width="0.5"/>
  <circle cx="285.939" cy="333.818" r="4" fill="#1f77b4" fill-opacity="0.85" stroke="#ffffff" stroke-width="0.5"/>
  <circle cx="160.128" cy="333.818" r="4" fill="#1f77b4" fill-opacity="0.85" stroke="#ffffff" stroke-width="0.5"/>
  <circle cx="376.693" cy="333.818" r="4" fill="#1f77b4" fill-opacity="0.85" stroke="#ffffff" stroke-width="0.5"/>
  <circle cx="179.246" cy="333.818" r="4" fill="#1f77b4" fill-opacity="0.85" stroke="#ffffff" stroke-width="0.5"/>
  <circle cx="173.303" cy="333.818" r="4" fill="#1f77b4" fill-opacity="0.85" stroke="#ffffff" stroke-width="0.5"/>
  <circle cx="113.369" cy="333.818" r="4" fill="#1f77b4" fill-opacity="0.85" stroke="#ffffff" stroke-width="0.5"/>
  <circle cx="281.332" cy="333.818" r="4" fill="#1f77b4" fill-opacity="0.85" stroke="#ffffff" stroke-width="0.5"/>
  <circle cx="225.567" cy="333.818" r="4" fill="#1f77b4" fill-opacity="0.85" stroke="#ffffff" stroke-width="0.5"/>
  <circle cx="290.316" cy="333.818" r="4" fill="#1f77b4" fill-opacity="0.85" stroke="#ffffff" stroke-width="0.5"/>
  <circle cx="157.617" cy="333.818" r="4" fill="#1f77b4" fill-opacity="0.85" stroke="#ffffff" stroke-width="0.5"/>
  <circle cx="157.778" cy="333.818" r="4" fill="#1f77b4" fill-opacity="0.85" stroke="#ffffff" stroke-width="0.5"/>
  <circle cx="301.142" cy="333.818" r="4" fill="#1f77b4" fill-opacity="0.85" stroke="#ffffff" stroke-width="0.5"/>
  <circle cx="218.381" cy="333.818" r="4" fill="#1f77b4" fill-opacity="0.85" stroke="#ffffff" stroke-width="0.5"/>
  <circle cx="334.311" cy="333.818" r="4" fill="#1f77b4" fill-opacity="0.85" stroke="#ffffff" stroke-width="0.5"/>
  <circle cx="383.143" cy="333.818" r="4" fill="#1f77b4" fill-opacity="0.85" stroke="#ffffff" stroke-width="0.5"/>
  <circle cx="189.381" cy="333.818" r="4" fill="#1f77b4" fill-opacity="0.85" stroke="#ffffff" stroke-width="0.5"/>
  <circle cx="248.463" cy="333.818" r="4" fill="#1f77b4" fill-opacity="0.85" stroke="#ffffff" stroke-width="0.5"/>
  <circle cx="154.876" cy="333.818" r="4" fill="#1f77b4" fill-opacity="0.85" stroke="#ffffff" stroke-width="0.5"/>
  <circle cx="178.301" cy="333.818" r="4" fill="#1f77b4" fill-opacity="0.85" stroke="#ffffff" stroke-width="0.5"/>
  <circle cx="128.226" cy="333.818" r="4" fill="#1f77b4" fill-opacity="0.85" stroke="#ffffff" stroke-width="0.5"/>
  <circle cx="156.603" cy="333.818" r="4" fill="#1f77b4" fill-opacity="0.85" stroke="#ffffff" stroke-width="0.5"/>
  <circle cx="227.318" cy="333.818" r="4" fill="#1f77b4" fill-opacity="0.85" stroke="#ffffff" stroke-width="0.5"/>
  <circle cx="342.372" cy="333.818" r="4" fill="#1f77b4" fill-opacity="0.85" stroke="#ffffff" stroke-width="0.5"/>
  <circle cx="210.849" cy="333.818" r="4" fill="#1f77b4" fill-opacity="0.85" stroke="#ffffff" stroke-width="0.5"/>
  <circle cx="349.283" cy="333.818" r="4" fill="#1f77b4" fill-opacity="0.85" stroke="#ffffff" stroke-width="0.5"/>
  <circle cx="285.018" cy="333.818" r="4" fill="#1f77b4" fill-opacity="0.85" stroke="#ffffff" stroke-width="0.5"/>
  <circle cx="550.83" cy="333.818" r="4" fill="#1f77b4" fill-opacity="0.85" stroke="#ffffff" stroke-width="0.5"/>
  <circle cx="542.768" cy="333.818" r="4" fill="#1f77b4" fill-opacity="0.85" stroke="#ffffff" stroke-width="0.5"/>
  <circle cx="300.451" cy="333.818" r="4" fill="#1f77b4" fill-opacity="0.85" stroke="#ffffff" stroke-width="0.5"/>
  <circle cx="257.631" cy="333.818" r="4" fill="#1f77b4" fill-opacity="0.85" stroke="#ffffff" stroke-width="0.5"/>
  <circle cx="150.638" cy="333.818" r="4" fill="#1f77b4" fill-opacity="0.85" stroke="#ffffff" stroke-width="0.5"/>
  <circle cx="373.468" cy="50.1818" r="4" fill="#1f77b4" fill-opacity="0.85" stroke="#ffffff" stroke-width="0.5"/>
  <circle cx="240.516" cy="333.818" r="4" fill="#1f77b4" fill-opacity="0.85" stroke="#ffffff" stroke-width="0.5"/>
  <circle cx="417.694" cy="333.818" r="4" fill="#1f77b4" fill-opacity="0.85" stroke="#ffffff" stroke-width="0.5"/>
  <circle cx="292.389" cy="333.818" r="4" fill="#1f77b4" fill-opacity="0.85" stroke="#ffffff" stroke-width="0.5"/>
  <circle cx="229.022" cy="333.818" r="4" fill="#1f77b4" fill-opacity="0.85" stroke="#ffffff" stroke-width="0.5"/>
  <circle cx="297.226" cy="333.818" r="4" fill="#1f77b4" fill-opacity="0.85" stroke="#ffffff" stroke-width="0.5"/>
  <circle cx="180.375" cy="333.818" r="4" fill="#1f77b4" fill-opacity="0.85" stroke="#ffffff" stroke-width="0.5"/>
  <circle cx="259.796" cy="333.818" r="4" fill="#1f77b4" fill-opacity="0.85" stroke="#ffffff" stroke-width="0.5"/>
  <circle cx="242.612" cy="333.818" r="4" fill="#1f77b4" fill-opacity="0.85" stroke="#ffffff" stroke-width="0.5"/>
  <circle cx="258.828" cy="333.818" r="4" fill="#1f77b4" fill-opacity="0.85" stroke="#ffffff" stroke-width="0.5"/>
  <circle cx="202.211" cy="333.818" r="4" fill="#1f77b4" fill-opacity="0.85" stroke="#ffffff" stroke-width="0.5"/>
  <circle cx="259.727" cy="333.818" r="4" fill="#1f77b4" fill-opacity="0.85" stroke="#ffffff" stroke-width="0.5"/>
  <circle cx="392.587" cy="333.818" r="4" fill="#1f77b4" fill-opacity="0.85" stroke="#ffffff" stroke-width="0.5"/>
  <circle cx="147.459" cy="333.818" r="4" fill="#1f77b4" fill-opacity="0.85" stroke="#ffffff" stroke-width="0.5"/>
  <circle cx="311.277" cy="333.818" r="4" fill="#1f77b4" fill-opacity="0.85" stroke="#ffffff" stroke-width="0.5"/>
  <circle cx="293.08" cy="333.818" r="4" fill="#1f77b4" fill-opacity="0.85" stroke="#ffffff" stroke-width="0.5"/>
  <circle cx="318.417" cy="333.818" r="4" fill="#1f77b4" fill-opacity="0.85" stroke="#ffffff" stroke-width="0.5"/>
  <circle cx="201.266" cy="333.818" r="4" fill="#1f77b4" fill-opacity="0.85" stroke="#ffffff" stroke-width="0.5"/>
  <circle cx="193.504" cy="333.818" r="4" fill="#1f77b4" fill-opacity="0.85" stroke="#ffffff" stroke-width="0.5"/>
  <circle cx="269.585" cy="333.818" r="4" fill="#1f77b4" fill-opacity="0.85" stroke="#ffffff" stroke-width="0.5"/>
  <circle cx="190.51" cy="333.818" r="4" fill="#1f77b4" fill-opacity="0.85" stroke="#ffffff" stroke-width="0.5"/>
  <circle cx="150.131" cy="333.818" r="4" fill="#1f77b4" fill-opacity="0.85" stroke="#ffffff" stroke-width="0.5"/>
  <circle cx="220.891" cy="333.818" r="4" fill="#1f77b4" fill-opacity="0.85" stroke="#ffffff" stroke-width="0.5"/>
  <circle cx="150.96" cy="333.818" r="4" fill="#1f77b4" fill-opacity="0.85" stroke="#ffffff" stroke-width="0.5"/>
  <circle cx="187.17" cy="333.818" r="4" fill="#1f77b4" fill-opacity="0.85" stroke="#ffffff" stroke-width="0.5"/>
  <circle cx="223.84" cy="333.818" r="4" fill="#1f77b4" fill-opacity="0.85" stroke="#ffffff" stroke-width="0.5"/>
  <circle cx="132.625" cy="333.818" r="4" fill="#1f77b4" fill-opacity="0.85" stroke="#ffffff" stroke-width="0.5"/>
  <circle cx="164.205" cy="333.818" r="4" fill="#1f77b4" fill-opacity="0.85" stroke="#ffffff" stroke-width="0.5"/>
  <circle cx="169.249" cy="333.818" r="4" fill="#1f77b4" fill-opacity="0.85" stroke="#ffffff" stroke-width="0.5"/>
  <circle cx="211.493" cy="333.818" r="4" fill="#1f77b4" fill-opacity="0.85" stroke="#ffffff" stroke-width="0.5"/>
  <circle cx="207.946" cy="333.818" r="4" fill="#1f77b4" fill-opacity="0.85" stroke="#ffffff" stroke-width="0.5"/>
  <circle cx="149.601" cy="333.818" r="4" fill="#1f77b4" fill-opacity="0.85" stroke="#ffffff" stroke-width="0.5"/>
  <circle cx="341.451" cy="333.818" r="4" fill="#1f77b4" fill-opacity="0.85" stroke="#ffffff" stroke-width="0.5"/>
  <circle cx="294.462" cy="333.818" r="4" fill="#1f77b4" fill-opacity="0.85" stroke="#ffffff" stroke-width="0.5"/>
  <circle cx="117.054" cy="333.818" r="4" fill="#1f77b4" fill-opacity="0.85" stroke="#ffffff" stroke-width="0.5"/>
  <circle cx="550.139" cy="50.1818" r="4" fill="#1f77b4" fill-opacity="0.85" stroke="#ffffff" stroke-width="0.5"/>
</svg>
