<?xml version="1.0" encoding="UTF-8"?>
<svg xmlns="http://www.w3.org/2000/svg" width="640" height="400" viewBox="0 0 640 400">
  <rect width="100%" height="100%" fill="#ffffff"/>
  <text x="340" y="20" text-anchor="middle" font-size="14" font-weight="bold" fill="#111111">lag_2 distribution</text>
  <rect x="64" y="36" width="552" height="312" fill="none" stroke="#999999" stroke-width="1"/>
  <line x1="64" y1="333.818" x2="616" y2="333.818" stroke="#e0e0e0" stroke-width="1"/>
  <line x1="64" y1="286.545" x2="616" y2="286.545" stroke="#e0e0e0" stroke-width="1"/>
  <line x1="64" y1="239.273" x2="616" y2="239.273" stroke="#e0e0e0" stroke-width="1"/>
  <line x1="64" y1="192" x2="616" y2="192" stroke="#e0e0e0" stroke-width="1"/>
  <line x1="64" y1="144.727" x2="616" y2="144.727" stroke="#e0e0e0" stroke-width="1"/>
  <line x1="64" y1="97.4545" x2="616" y2="97.4545" stroke="#e0e0e0" stroke-width="1"/>
  <line x1="64" y1="50.1818" x2="616" y2="50.1818" stroke="#e0e0e0" stroke-width="1"/>
  <line x1="83.5612" y1="36" x2="83.5612" y2="348" stroke="#e0e0e0" stroke-width="1"/>
  <line x1="152.682" y1="36" x2="152.682" y2="348" stroke="#e0e0e0" stroke-width="1"/>
  <line x1="221.803" y1="36" x2="221.803" y2="348" stroke="#e0e0e0" stroke-width="1"/>
  <line x1="290.924" y1="36" x2="290.924" y2="348" stroke="#e0e0e0" stroke-width="1"/>
  <line x1="360.045" y1="36" x2="360.045" y2="348" stroke="#e0e0e0" stroke-width="1"/>
  <line x1="429.166" y1="36" x2="429.166" y2="348" stroke="#e0e0e0" stroke-width="1"/>
  <line x1="498.287" y1="36" x2="498.287" y2="348" stroke="#e0e0e0" stroke-width="1"/>
  <line x1="567.408" y1="36" x2="567.408" y2="348" stroke="#e0e0e0" stroke-width="1"/>
  <line x1="64" y1="348" x2="616" y2="348" stroke="#111111" stroke-width="1"/>
  <line x1="64" y1="36" x2="64" y2="348" stroke="#111111" stroke-width="1"/>
  <text x="58" y="337.318" text-anchor="end" font-size="10" fill="#333333">0</text>
  <text x="58" y="290.045" text-anchor="end" font-size="10" fill="#333333">2</text>
  <text x="58" y="242.773" text-anchor="end" font-size="10" fill="#333333">4</text>
  <text x="58" y="195.5" text-anchor="end" font-size="10" fill="#333333">6</text>
  <text x="58" y="148.227" text-anchor="end" font-size="10" fill="#333333">8</text>
  <text x="58" y="100.955" text-anchor="end" font-size="10" fill="#333333">10</text>
  <text x="58" y="53.6818" text-anchor="end" font-size="10" fill="#333333">12</text>
  <text x="83.5612" y="364" text-anchor="middle" font-size="10" fill="#333333">100</text>
  <text x="152.682" y="364" text-anchor="middle" font-size="10" fill="#333333">150</text>
  <text x="221.803" y="364" text-anchor="middle" font-size="10" fill="#333333">200</text>
  <text x="290.924" y="364" text-anchor="middle" font-size="10" fill="#333333">250</text>
  <text x="360.045" y="364" text-anchor="middle" font-size="10" fill="#333333">300</text>
  <text x="429.166" y="364" text-anchor="middle" font-size="10" fill="#333333">350</text>
  <text x="498.287" y="364" text-anchor="middle" font-size="10" fill="#333333">400</text>
  <text x="567.408" y="364" text-anchor="middle" font-size="10" fill="#333333">450</text>
  <rect x="78.0909" y="239.273" width="22" height="94.5455" fill="#1f77b4" opacity="0.65"/>
  <rect x="99" y="262.909" width="22" height="70.9091" fill="#1f77b4" opacity="0.65"/>
  <rect x="119.909" y="192" width="22" height="141.818" fill="#1f77b4" opacity="0.65"/>
  <rect x="140.818" y="239.273" width="22" height="94.5455" fill="#1f77b4" opacity="0.65"/>
  <rect x="161.727" y="144.727" width="22" height="189.091" fill="#1f77b4" opacity="0.65"/>
  <rect x="182.636" y="121.091" width="22" height="212.727" fill="#1f77b4" opacity="0.65"/>
  <rect x="203.545" y="144.727" width="22" height="189.091" fill="#1f77b4" opacity="0.65"/>
  <rect x="224.455" y="286.545" width="22" height="47.2727" fill="#1f77b4" opacity="0.65"/>
  <rect x="245.364" y="50.1818" width="22" height="283.636" fill="#1f77b4" opacity="0.65"/>
  <rect x="266.273" y="262.909" width="22" height="70.9091" fill="#1f77b4" opacity="0.65"/>
  <rect x="287.182" y="192" width="22" height="141.818" fill="#1f77b4" opacity="0.65"/>
  <rect x="308.091" y="192" width="22" height="141.818" fill="#1f77b4" opacity="0.65"/>
  <rect x="329" y="310.182" width="22" height="23.6364" fill="#1f77b4" opacity="0.65"/>
  <rect x="349.909" y="121.091" width="22" height="212.727" fill="#1f77b4" opacity="0.65"/>
  <rect x="370.818" y="262.909" width="22" height="70.9091" fill="#1f77b4" opacity="0.65"/>
  <rect x="391.727" y="286.545" width="22" height="47.2727" fill="#1f77b4" opacity="0.65"/>
  <rect x="412.636" y="168.364" width="22" height="165.455" fill="#1f77b4" opacity="0.65"/>
  <rect x="433.545" y="239.273" width="22" height="94.5455" fill="#1f77b4" opacity="0.65"/>
  <rect x="454.455" y="333.818" width="22" height="0" fill="#1f77b4" opacity="0.65"/>
  <rect x="475.364" y="286.545" width="22" height="47.2727" fill="#1f77b4" opacity="0.65"/>
  <rect x="496.273" y="310.182" width="22" height="23.6364" fill="#1f77b4" opacity="0.65"/>
  <rect x="517.182" y="310.182" width="22" height="23.6364" fill="#1f77b4" opacity="0.65"/>
  <rect x="538.091" y="333.818" width="22" height="0" fill="#1f77b4" opacity="0.65"/>
  <rect x="559" y="286.545" width="22" height="47.2727" fill="#1f77b4" opacity="0.65"/>
</svg>
