<?xml version="1.0" encoding="UTF-8"?>
<svg xmlns="http://www.w3.org/2000/svg" width="640" height="400" viewBox="0 0 640 400">
  <rect width="100%" height="100%" fill="#ffffff"/>
  <text x="340" y="20" text-anchor="middle" font-size="14" font-weight="bold" fill="#111111">s5 distribution</text>
  <rect x="64" y="36" width="552" height="312" fill="none" stroke="#999999" stroke-width="1"/>
  <line x1="64" y1="333.818" x2="616" y2="333.818" stroke="#e0e0e0" stroke-width="1"/>
  <line x1="64" y1="281.293" x2="616" y2="281.293" stroke="#e0e0e0" stroke-width="1"/>
  <line x1="64" y1="228.768" x2="616" y2="228.768" stroke="#e0e0e0" stroke-width="1"/>
  <line x1="64" y1="176.242" x2="616" y2="176.242" stroke="#e0e0e0" stroke-width="1"/>
  <line x1="64" y1="123.717" x2="616" y2="123.717" stroke="#e0e0e0" stroke-width="1"/>
  <line x1="64" y1="71.1919" x2="616" y2="71.1919" stroke="#e0e0e0" stroke-width="1"/>
  <line x1="131.7" y1="36" x2="131.7" y2="348" stroke="#e0e0e0" stroke-width="1"/>
  <line x1="219.773" y1="36" x2="219.773" y2="348" stroke="#e0e0e0" stroke-width="1"/>
  <line x1="307.845" y1="36" x2="307.845" y2="348" stroke="#e0e0e0" stroke-width="1"/>
  <line x1="395.917" y1="36" x2="395.917" y2="348" stroke="#e0e0e0" stroke-width="1"/>
  <line x1="483.989" y1="36" x2="483.989" y2="348" stroke="#e0e0e0" stroke-width="1"/>
  <line x1="572.062" y1="36" x2="572.062" y2="348" stroke="#e0e0e0" stroke-width="1"/>
  <line x1="64" y1="348" x2="616" y2="348" stroke="#111111" stroke-width="1"/>
  <line x1="64" y1="36" x2="64" y2="348" stroke="#111111" stroke-width="1"/>
  <text x="58" y="337.318" text-anchor="end" font-size="10" fill="#333333">0</text>
  <text x="58" y="284.793" text-anchor="end" font-size="10" fill="#333333">5</text>
  <text x="58" y="232.268" text-anchor="end" font-size="10" fill="#333333">10</text>
  <text x="58" y="179.742" text-anchor="end" font-size="10" fill="#333333">15</text>
  <text x="58" y="127.217" text-anchor="end" font-size="10" fill="#333333">20</text>
  <text x="58" y="74.6919" text-anchor="end" font-size="10" fill="#333333">25</text>
  <text x="131.7" y="364" text-anchor="middle" font-size="10" fill="#333333">3.5</text>
  <text x="219.773" y="364" text-anchor="middle" font-size="10" fill="#333333">4</text>
  <text x="307.845" y="364" text-anchor="middle" font-size="10" fill="#333333">4.5</text>
  <text x="395.917" y="364" text-anchor="middle" font-size="10" fill="#333333">5</text>
  <text x="483.989" y="364" text-anchor="middle" font-size="10" fill="#333333">5.5</text>
  <text x="572.062" y="364" text-anchor="middle" font-size="10" fill="#333333">6</text>
  <rect x="78.0909" y="323.313" width="22" height="10.5051" fill="#1f77b4" opacity="0.65"/>
  <rect x="99" y="333.818" width="22" height="0" fill="#1f77b4" opacity="0.65"/>
  <rect x="119.909" y="291.798" width="22" height="42.0202" fill="#1f77b4" opacity="0.65"/>
  <rect x="140.818" y="302.303" width="22" height="31.5152" fill="#1f77b4" opacity="0.65"/>
  <rect x="161.727" y="239.273" width="22" height="94.5455" fill="#1f77b4" opacity="0.65"/>
  <rect x="182.636" y="207.758" width="22" height="126.061" fill="#1f77b4" opacity="0.65"/>
  <rect x="203.545" y="218.263" width="22" height="115.556" fill="#1f77b4" opacity="0.65"/>
  <rect x="224.455" y="176.242" width="22" height="157.576" fill="#1f77b4" opacity="0.65"/>
  <rect x="245.364" y="92.202" width="22" height="241.616" fill="#1f77b4" opacity="0.65"/>
  <rect x="266.273" y="92.202" width="22" height="241.616" fill="#1f77b4" opacity="0.65"/>
  <rect x="287.182" y="155.232" width="22" height="178.586" fill="#1f77b4" opacity="0.65"/>
  <rect x="308.091" y="155.232" width="22" height="178.586" fill="#1f77b4" opacity="0.65"/>
  <rect x="329" y="218.263" width="22" height="115.556" fill="#1f77b4" opacity="0.65"/>
  <rect x="349.909" y="50.1818" width="22" height="283.636" fill="#1f77b4" opacity="0.65"/>
  <rect x="370.818" y="113.212" width="22" height="220.606" fill="#1f77b4" opacity="0.65"/>
  <rect x="391.727" y="176.242" width="22" height="157.576" fill="#1f77b4" opacity="0.65"/>
  <rect x="412.636" y="270.788" width="22" height="63.0303" fill="#1f77b4" opacity="0.65"/>
  <rect x="433.545" y="260.283" width="22" height="73.5354" fill="#1f77b4" opacity="0.65"/>
  <rect x="454.455" y="270.788" width="22" height="63.0303" fill="#1f77b4" opacity="0.65"/>
  <rect x="475.364" y="291.798" width="22" height="42.0202" fill="#1f77b4" opacity="0.65"/>
  <rect x="496.273" y="323.313" width="22" height="10.5051" fill="#1f77b4" opacity="0.65"/>
  <rect x="517.182" y="312.808" width="22" height="21.0101" fill="#1f77b4" opacity="0.65"/>
  <rect x="538.091" y="323.313" width="22" height="10.5051" fill="#1f77b4" opacity="0.65"/>
  <rect x="559" y="291.798" width="22" height="42.0202" fill="#1f77b4" opacity="0.65"/>
</svg>
