<?xml version="1.0" encoding="UTF-8"?>
<svg xmlns="http://www.w3.org/2000/svg" width="640" height="400" viewBox="0 0 640 400">
  <rect width="100%" height="100%" fill="#ffffff"/>
  <text x="340" y="20" text-anchor="middle" font-size="14" font-weight="bold" fill="#111111">Target distribution</text>
  <rect x="64" y="36" width="552" height="312" fill="none" stroke="#999999" stroke-width="1"/>
  <line x1="64" y1="333.818" x2="616" y2="333.818" stroke="#e0e0e0" stroke-width="1"/>
  <line x1="64" y1="284.915" x2="616" y2="284.915" stroke="#e0e0e0" stroke-width="1"/>
  <line x1="64" y1="236.013" x2="616" y2="236.013" stroke="#e0e0e0" stroke-width="1"/>
  <line x1="64" y1="187.11" x2="616" y2="187.11" stroke="#e0e0e0" stroke-width="1"/>
  <line x1="64" y1="138.207" x2="616" y2="138.207" stroke="#e0e0e0" stroke-width="1"/>
  <line x1="64" y1="89.3041" x2="616" y2="89.3041" stroke="#e0e0e0" stroke-width="1"/>
  <line x1="64" y1="40.4013" x2="616" y2="40.4013" stroke="#e0e0e0" stroke-width="1"/>
  <line x1="119.848" y1="36" x2="119.848" y2="348" stroke="#e0e0e0" stroke-width="1"/>
  <line x1="200.786" y1="36" x2="200.786" y2="348" stroke="#e0e0e0" stroke-width="1"/>
  <line x1="281.724" y1="36" x2="281.724" y2="348" stroke="#e0e0e0" stroke-width="1"/>
  <line x1="362.663" y1="36" x2="362.663" y2="348" stroke="#e0e0e0" stroke-width="1"/>
  <line x1="443.601" y1="36" x2="443.601" y2="348" stroke="#e0e0e0" stroke-width="1"/>
  <line x1="524.54" y1="36" x2="524.54" y2="348" stroke="#e0e0e0" stroke-width="1"/>
  <line x1="605.478" y1="36" x2="605.478" y2="348" stroke="#e0e0e0" stroke-width="1"/>
  <line x1="64" y1="348" x2="616" y2="348" stroke="#111111" stroke-width="1"/>
  <line x1="64" y1="36" x2="64" y2="348" stroke="#111111" stroke-width="1"/>
  <text x="58" y="337.318" text-anchor="end" font-size="10" fill="#333333">0</text>
  <text x="58" y="288.415" text-anchor="end" font-size="10" fill="#333333">5</text>
  <text x="58" y="239.513" text-anchor="end" font-size="10" fill="#333333">10</text>
  <text x="58" y="190.61" text-anchor="end" font-size="10" fill="#333333">15</text>
  <text x="58" y="141.707" text-anchor="end" font-size="10" fill="#333333">20</text>
  <text x="58" y="92.8041" text-anchor="end" font-size="10" fill="#333333">25</text>
  <text x="58" y="43.9013" text-anchor="end" font-size="10" fill="#333333">30</text>
  <text x="119.848" y="364" text-anchor="middle" font-size="10" fill="#333333">50</text>
  <text x="200.786" y="364" text-anchor="middle" font-size="10" fill="#333333">100</text>
  <text x="281.724" y="364" text-anchor="middle" font-size="10" fill="#333333">150</text>
  <text x="362.663" y="364" text-anchor="middle" font-size="10" fill="#333333">200</text>
  <text x="443.601" y="364" text-anchor="middle" font-size="10" fill="#333333">250</text>
  <text x="524.54" y="364" text-anchor="middle" font-size="10" fill="#333333">300</text>
  <text x="605.478" y="364" text-anchor="middle" font-size="10" fill="#333333">350</text>
  <rect x="78.0909" y="245.793" width="22" height="88.0251" fill="#1f77b4" opacity="0.65"/>
  <rect x="99" y="128.426" width="22" height="205.392" fill="#1f77b4" opacity="0.65"/>
  <rect x="119.909" y="99.0846" width="22" height="234.734" fill="#1f77b4" opacity="0.65"/>
  <rect x="140.818" y="89.3041" width="22" height="244.514" fill="#1f77b4" opacity="0.65"/>
  <rect x="161.727" y="50.1818" width="22" height="283.636" fill="#1f77b4" opacity="0.65"/>
  <rect x="182.636" y="128.426" width="22" height="205.392" fill="#1f77b4" opacity="0.65"/>
  <rect x="203.545" y="138.207" width="22" height="195.611" fill="#1f77b4" opacity="0.65"/>
  <rect x="224.455" y="167.549" width="22" height="166.27" fill="#1f77b4" opacity="0.65"/>
  <rect x="245.364" y="138.207" width="22" height="195.611" fill="#1f77b4" opacity="0.65"/>
  <rect x="266.273" y="177.329" width="22" height="156.489" fill="#1f77b4" opacity="0.65"/>
  <rect x="287.182" y="206.671" width="22" height="127.147" fill="#1f77b4" opacity="0.65"/>
  <rect x="308.091" y="147.987" width="22" height="185.831" fill="#1f77b4" opacity="0.65"/>
  <rect x="329" y="196.89" width="22" height="136.928" fill="#1f77b4" opacity="0.65"/>
  <rect x="349.909" y="177.329" width="22" height="156.489" fill="#1f77b4" opacity="0.65"/>
  <rect x="370.818" y="216.451" width="22" height="117.367" fill="#1f77b4" opacity="0.65"/>
  <rect x="391.727" y="216.451" width="22" height="117.367" fill="#1f77b4" opacity="0.65"/>
  <rect x="412.636" y="206.671" width="22" height="127.147" fill="#1f77b4" opacity="0.65"/>
  <rect x="433.545" y="236.013" width="22" height="97.8056" fill="#1f77b4" opacity="0.65"/>
  <rect x="454.455" y="187.11" width="22" height="146.708" fill="#1f77b4" opacity="0.65"/>
  <rect x="475.364" y="236.013" width="22" height="97.8056" fill="#1f77b4" opacity="0.65"/>
  <rect x="496.273" y="265.354" width="22" height="68.4639" fill="#1f77b4" opacity="0.65"/>
  <rect x="517.182" y="275.135" width="22" height="58.6834" fill="#1f77b4" opacity="0.65"/>
  <rect x="538.091" y="324.038" width="22" height="9.78056" fill="#1f77b4" opacity="0.65"/>
  <rect x="559" y="304.476" width="22" height="29.3417" fill="#1f77b4" opacity="0.65"/>
</svg>
