<?xml version="1.0" encoding="UTF-8"?>
<svg xmlns="http://www.w3.org/2000/svg" width="640" height="400" viewBox="0 0 640 400">
  <rect width="100%" height="100%" fill="#ffffff"/>
  <text x="340" y="20" text-anchor="middle" font-size="14" font-weight="bold" fill="#111111">smoothness_se distribution</text>
  <rect x="64" y="36" width="552" height="312" fill="none" stroke="#999999" stroke-width="1"/>
  <line x1="64" y1="333.818" x2="616" y2="333.818" stroke="#e0e0e0" stroke-width="1"/>
  <line x1="64" y1="270.08" x2="616" y2="270.08" stroke="#e0e0e0" stroke-width="1"/>
  <line x1="64" y1="206.341" x2="616" y2="206.341" stroke="#e0e0e0" stroke-width="1"/>
  <line x1="64" y1="142.603" x2="616" y2="142.603" stroke="#e0e0e0" stroke-width="1"/>
  <line x1="64" y1="78.8641" x2="616" y2="78.8641" stroke="#e0e0e0" stroke-width="1"/>
  <line x1="145.163" y1="36" x2="145.163" y2="348" stroke="#e0e0e0" stroke-width="1"/>
  <line x1="230.457" y1="36" x2="230.457" y2="348" stroke="#e0e0e0" stroke-width="1"/>
  <line x1="315.751" y1="36" x2="315.751" y2="348" stroke="#e0e0e0" stroke-width="1"/>
  <line x1="401.045" y1="36" x2="401.045" y2="348" stroke="#e0e0e0" stroke-width="1"/>
  <line x1="486.339" y1="36" x2="486.339" y2="348" stroke="#e0e0e0" stroke-width="1"/>
  <line x1="571.633" y1="36" x2="571.633" y2="348" stroke="#e0e0e0" stroke-width="1"/>
  <line x1="64" y1="348" x2="616" y2="348" stroke="#111111" stroke-width="1"/>
  <line x1="64" y1="36" x2="64" y2="348" stroke="#111111" stroke-width="1"/>
  <text x="58" y="337.318" text-anchor="end" font-size="10" fill="#333333">0</text>
  <text x="58" y="273.58" text-anchor="end" font-size="10" fill="#333333">20</text>
  <text x="58" y="209.841" text-anchor="end" font-size="10" fill="#333333">40</text>
  <text x="58" y="146.103" text-anchor="end" font-size="10" fill="#333333">60</text>
  <text x="58" y="82.3641" text-anchor="end" font-size="10" fill="#333333">80</text>
  <text x="145.163" y="364" text-anchor="middle" font-size="10" fill="#333333">0.005</text>
  <text x="230.457" y="364" text-anchor="middle" font-size="10" fill="#333333">0.01</text>
  <text x="315.751" y="364" text-anchor="middle" font-size="10" fill="#333333">0.015</text>
  <text x="401.045" y="364" text-anchor="middle" font-size="10" fill="#333333">0.02</text>
  <text x="486.339" y="364" text-anchor="middle" font-size="10" fill="#333333">0.025</text>
  <text x="571.633" y="364" text-anchor="middle" font-size="10" fill="#333333">0.03</text>
  <rect x="78.0909" y="324.257" width="22" height="9.56078" fill="#1f77b4" opacity="0.65"/>
  <rect x="99" y="247.771" width="22" height="86.047" fill="#1f77b4" opacity="0.65"/>
  <rect x="119.909" y="117.107" width="22" height="216.711" fill="#1f77b4" opacity="0.65"/>
  <rect x="140.818" y="50.1818" width="22" height="283.636" fill="#1f77b4" opacity="0.65"/>
  <rect x="161.727" y="177.659" width="22" height="156.159" fill="#1f77b4" opacity="0.65"/>
  <rect x="182.636" y="250.958" width="22" height="82.8601" fill="#1f77b4" opacity="0.65"/>
  <rect x="203.545" y="250.958" width="22" height="82.8601" fill="#1f77b4" opacity="0.65"/>
  <rect x="224.455" y="289.201" width="22" height="44.617" fill="#1f77b4" opacity="0.65"/>
  <rect x="245.364" y="321.07" width="22" height="12.7477" fill="#1f77b4" opacity="0.65"/>
  <rect x="266.273" y="317.884" width="22" height="15.9346" fill="#1f77b4" opacity="0.65"/>
  <rect x="287.182" y="330.631" width="22" height="3.18693" fill="#1f77b4" opacity="0.65"/>
  <rect x="308.091" y="324.257" width="22" height="9.56078" fill="#1f77b4" opacity="0.65"/>
  <rect x="329" y="330.631" width="22" height="3.18693" fill="#1f77b4" opacity="0.65"/>
  <rect x="349.909" y="330.631" width="22" height="3.18693" fill="#1f77b4" opacity="0.65"/>
  <rect x="370.818" y="333.818" width="22" height="0" fill="#1f77b4" opacity="0.65"/>
  <rect x="391.727" y="333.818" width="22" height="0" fill="#1f77b4" opacity="0.65"/>
  <rect x="412.636" y="333.818" width="22" height="0" fill="#1f77b4" opacity="0.65"/>
  <rect x="433.545" y="330.631" width="22" height="3.18693" fill="#1f77b4" opacity="0.65"/>
  <rect x="454.455" y="333.818" width="22" height="0" fill="#1f77b4" opacity="0.65"/>
  <rect x="475.364" y="333.818" width="22" height="0" fill="#1f77b4" opacity="0.65"/>
  <rect x="496.273" y="333.818" width="22" height="0" fill="#1f77b4" opacity="0.65"/>
  <rect x="517.182" y="333.818" width="22" height="0" fill="#1f77b4" opacity="0.65"/>
  <rect x="538.091" y="333.818" width="22" height="0" fill="#1f77b4" opacity="0.65"/>
  <rect x="559" y="330.631" width="22" height="3.18693" fill="#1f77b4" opacity="0.65"/>
</svg>
