<?xml version="1.0" encoding="UTF-8"?>
<svg xmlns="http://www.w3.org/2000/svg" width="640" height="400" viewBox="0 0 640 400">
  <rect width="100%" height="100%" fill="#ffffff"/>
  <text x="340" y="20" text-anchor="middle" font-size="14" font-weight="bold" fill="#111111">Forward selection (training rows, 3-fold macro F1)</text>
  <rect x="64" y="36" width="552" height="312" fill="none" stroke="#999999" stroke-width="1"/>
  <line x1="64" y1="314.968" x2="616" y2="314.968" stroke="#e0e0e0" stroke-width="1"/>
  <line x1="64" y1="279.208" x2="616" y2="279.208" stroke="#e0e0e0" stroke-width="1"/>
  <line x1="64" y1="243.447" x2="616" y2="243.447" stroke="#e0e0e0" stroke-width="1"/>
  <line x1="64" y1="207.686" x2="616" y2="207.686" stroke="#e0e0e0" stroke-width="1"/>
  <line x1="64" y1="171.925" x2="616" y2="171.925" stroke="#e0e0e0" stroke-width="1"/>
  <line x1="64" y1="136.164" x2="616" y2="136.164" stroke="#e0e0e0" stroke-width="1"/>
  <line x1="64" y1="100.403" x2="616" y2="100.403" stroke="#e0e0e0" stroke-width="1"/>
  <line x1="64" y1="64.6427" x2="616" y2="64.6427" stroke="#e0e0e0" stroke-width="1"/>
  <line x1="89.0909" y1="36" x2="89.0909" y2="348" stroke="#e0e0e0" stroke-width="1"/>
  <line x1="160.779" y1="36" x2="160.779" y2="348" stroke="#e0e0e0" stroke-width="1"/>
  <line x1="232.468" y1="36" x2="232.468" y2="348" stroke="#e0e0e0" stroke-width="1"/>
  <line x1="304.156" y1="36" x2="304.156" y2="348" stroke="#e0e0e0" stroke-width="1"/>
  <line x1="375.844" y1="36" x2="375.844" y2="348" stroke="#e0e0e0" stroke-width="1"/>
  <line x1="447.532" y1="36" x2="447.532" y2="348" stroke="#e0e0e0" stroke-width="1"/>
  <line x1="519.221" y1="36" x2="519.221" y2="348" stroke="#e0e0e0" stroke-width="1"/>
  <line x1="590.909" y1="36" x2="590.909" y2="348" stroke="#e0e0e0" stroke-width="1"/>
  <line x1="64" y1="348" x2="616" y2="348" stroke="#111111" stroke-width="1"/>
  <line x1="64" y1="36" x2="64" y2="348" stroke="#111111" stroke-width="1"/>
  <text x="58" y="318.468" text-anchor="end" font-size="10" fill="#333333">0.9</text>
  <text x="58" y="282.708" text-anchor="end" font-size="10" fill="#333333">0.91</text>
  <text x="58" y="246.947" text-anchor="end" font-size="10" fill="#333333">0.92</text>
  <text x="58" y="211.186" text-anchor="end" font-size="10" fill="#333333">0.93</text>
  <text x="58" y="175.425" text-anchor="end" font-size="10" fill="#333333">0.94</text>
  <text x="58" y="139.664" text-anchor="end" font-size="10" fill="#333333">0.95</text>
  <text x="58" y="103.903" text-anchor="end" font-size="10" fill="#333333">0.96</text>
  <text x="58" y="68.1427" text-anchor="end" font-size="10" fill="#333333">0.97</text>
  <text x="89.0909" y="364" text-anchor="middle" font-size="10" fill="#333333">1</text>
  <text x="160.779" y="364" text-anchor="middle" font-size="10" fill="#333333">2</text>
  <text x="232.468" y="364" text-anchor="middle" font-size="10" fill="#333333">3</text>
  <text x="304.156" y="364" text-anchor="middle" font-size="10" fill="#333333">4</text>
  <text x="375.844" y="364" text-anchor="middle" font-size="10" fill="#333333">5</text>
  <text x="447.532" y="364" text-anchor="middle" font-size="10" fill="#333333">6</text>
  <text x="519.221" y="364" text-anchor="middle" font-size="10" fill="#333333">7</text>
  <text x="590.909" y="364" text-anchor="middle" font-size="10" fill="#333333">8</text>
  <text x="340" y="390" text-anchor="middle" font-size="12" fill="#111111">features kept</text>
  <text x="16" y="192" text-anchor="middle" font-size="12" fill="#111111" transform="rotate(-90 16 192)">CV macro F1</text>
  <polyline points="89.0909,333.818 160.779,150.538 232.468,84.206 304.156,67.5783 375.844,75.5082 447.532,67.5857 519.221,59.1954 590.909,50.1818" fill="none" stroke="#1f77b4" stroke-width="2" stroke-linejoin="round"/>
  <rect x="76" y="44" width="95.5" height="32" fill="#ffffff" fill-opacity="0.88" stroke="#cccccc" stroke-width="1"/>
  <line x1="88" y1="59" x2="108" y2="59" stroke="#1f77b4" stroke-width="2"/>
  <text x="114" y="63" font-size="11" fill="#111111">forward</text>
</svg>
