<?xml version="1.0" encoding="UTF-8"?>
<svg xmlns="http://www.w3.org/2000/svg" width="640" height="400" viewBox="0 0 640 400">
  <rect width="100%" height="100%" fill="#ffffff"/>
  <text x="340" y="20" text-anchor="middle" font-size="14" font-weight="bold" fill="#111111">Feature 0 versus target</text>
  <rect x="64" y="36" width="552" height="312" fill="none" stroke="#999999" stroke-width="1"/>
  <line x1="64" y1="299.533" x2="616" y2="299.533" stroke="#e0e0e0" stroke-width="1"/>
  <line x1="64" y1="237.195" x2="616" y2="237.195" stroke="#e0e0e0" stroke-width="1"/>
  <line x1="64" y1="174.857" x2="616" y2="174.857" stroke="#e0e0e0" stroke-width="1"/>
  <line x1="64" y1="112.52" x2="616" y2="112.52" stroke="#e0e0e0" stroke-width="1"/>
  <line x1="64" y1="50.1824" x2="616" y2="50.1824" stroke="#e0e0e0" stroke-width="1"/>
  <line x1="161.852" y1="36" x2="161.852" y2="348" stroke="#e0e0e0" stroke-width="1"/>
  <line x1="277.345" y1="36" x2="277.345" y2="348" stroke="#e0e0e0" stroke-width="1"/>
  <line x1="392.838" y1="36" x2="392.838" y2="348" stroke="#e0e0e0" stroke-width="1"/>
  <line x1="508.331" y1="36" x2="508.331" y2="348" stroke="#e0e0e0" stroke-width="1"/>
  <line x1="64" y1="348" x2="616" y2="348" stroke="#111111" stroke-width="1"/>
  <line x1="64" y1="36" x2="64" y2="348" stroke="#111111" stroke-width="1"/>
  <text x="58" y="303.033" text-anchor="end" font-size="10" fill="#333333">100000</text>
  <text x="58" y="240.695" text-anchor="end" font-size="10" fill="#333333">200000</text>
  <text x="58" y="178.357" text-anchor="end" font-size="10" fill="#333333">300000</text>
  <text x="58" y="116.02" text-anchor="end" font-size="10" fill="#333333">400000</text>
  <text x="58" y="53.6824" text-anchor="end" font-size="10" fill="#333333">500000</text>
  <text x="161.852" y="364" text-anchor="middle" font-size="10" fill="#333333">-122</text>
  <text x="277.345" y="364" text-anchor="middle" font-size="10" fill="#333333">-120</text>
  <text x="392.838" y="364" text-anchor="middle" font-size="10" fill="#333333">-118</text>
  <text x="508.331" y="364" text-anchor="middle" font-size="10" fill="#333333">-116</text>
  <circle cx="136.443" cy="194.057" r="4" fill="#1f77b4" fill-opacity="0.85" stroke="#ffffff" stroke-width="0.5"/>
  <circle cx="442.5" cy="259.574" r="4" fill="#1f77b4" fill-opacity="0.85" stroke="#ffffff" stroke-width="0.5"/>
  <circle cx="409.007" cy="214.255" r="4" fill="#1f77b4" fill-opacity="0.85" stroke="#ffffff" stroke-width="0.5"/>
  <circle cx="374.937" cy="158.213" r="4" fill="#1f77b4" fill-opacity="0.85" stroke="#ffffff" stroke-width="0.5"/>
  <circle cx="214.979" cy="275.595" r="4" fill="#1f77b4" fill-opacity="0.85" stroke="#ffffff" stroke-width="0.5"/>
  <circle cx="238.655" cy="278.961" r="4" fill="#1f77b4" fill-opacity="0.85" stroke="#ffffff" stroke-width="0.5"/>
  <circle cx="187.838" cy="198.234" r="4" fill="#1f77b4" fill-opacity="0.85" stroke="#ffffff" stroke-width="0.5"/>
  <circle cx="383.021" cy="261.694" r="4" fill="#1f77b4" fill-opacity="0.85" stroke="#ffffff" stroke-width="0.5"/>
  <circle cx="446.543" cy="240.25" r="4" fill="#1f77b4" fill-opacity="0.85" stroke="#ffffff" stroke-width="0.5"/>
  <circle cx="441.345" cy="291.74" r="4" fill="#1f77b4" fill-opacity="0.85" stroke="#ffffff" stroke-width="0.5"/>
  <circle cx="392.261" cy="264.998" r="4" fill="#1f77b4" fill-opacity="0.85" stroke="#ffffff" stroke-width="0.5"/>
  <circle cx="292.359" cy="156.53" r="4" fill="#1f77b4" fill-opacity="0.85" stroke="#ffffff" stroke-width="0.5"/>
  <circle cx="165.894" cy="182.213" r="4" fill="#1f77b4" fill-opacity="0.85" stroke="#ffffff" stroke-width="0.5"/>
  <circle cx="399.19" cy="265.808" r="4" fill="#1f77b4" fill-opacity="0.85" stroke="#ffffff" stroke-width="0.5"/>
  <circle cx="383.021" cy="221.611" r="4" fill="#1f77b4" fill-opacity="0.85" stroke="#ffffff" stroke-width="0.5"/>
  <circle cx="405.542" cy="216.063" r="4" fill="#1f77b4" fill-opacity="0.85" stroke="#ffffff" stroke-width="0.5"/>
  <circle cx="410.162" cy="315.553" r="4" fill="#1f77b4" fill-opacity="0.85" stroke="#ffffff" stroke-width="0.5"/>
  <circle cx="392.261" cy="248.042" r="4" fill="#1f77b4" fill-opacity="0.85" stroke="#ffffff" stroke-width="0.5"/>
  <circle cx="160.697" cy="199.169" r="4" fill="#1f77b4" fill-opacity="0.85" stroke="#ffffff" stroke-width="0.5"/>
  <circle cx="450.007" cy="286.566" r="4" fill="#1f77b4" fill-opacity="0.85" stroke="#ffffff" stroke-width="0.5"/>
  <circle cx="383.021" cy="272.977" r="4" fill="#1f77b4" fill-opacity="0.85" stroke="#ffffff" stroke-width="0.5"/>
  <circle cx="147.992" cy="118.068" r="4" fill="#1f77b4" fill-opacity="0.85" stroke="#ffffff" stroke-width="0.5"/>
  <circle cx="228.838" cy="243.678" r="4" fill="#1f77b4" fill-opacity="0.85" stroke="#ffffff" stroke-width="0.5"/>
  <circle cx="365.697" cy="219.055" r="4" fill="#1f77b4" fill-opacity="0.85" stroke="#ffffff" stroke-width="0.5"/>
  <circle cx="201.697" cy="281.33" r="4" fill="#1f77b4" fill-opacity="0.85" stroke="#ffffff" stroke-width="0.5"/>
  <circle cx="145.105" cy="308.197" r="4" fill="#1f77b4" fill-opacity="0.85" stroke="#ffffff" stroke-width="0.5"/>
  <circle cx="206.317" cy="315.117" r="4" fill="#1f77b4" fill-opacity="0.85" stroke="#ffffff" stroke-width="0.5"/>
  <circle cx="381.866" cy="237.195" r="4" fill="#1f77b4" fill-opacity="0.85" stroke="#ffffff" stroke-width="0.5"/>
  <circle cx="216.133" cy="272.229" r="4" fill="#1f77b4" fill-opacity="0.85" stroke="#ffffff" stroke-width="0.5"/>
  <circle cx="494.472" cy="303.647" r="4" fill="#1f77b4" fill-opacity="0.85" stroke="#ffffff" stroke-width="0.5"/>
  <circle cx="395.148" cy="249.413" r="4" fill="#1f77b4" fill-opacity="0.85" stroke="#ffffff" stroke-width="0.5"/>
  <circle cx="223.641" cy="239.502" r="4" fill="#1f77b4" fill-opacity="0.85" stroke="#ffffff" stroke-width="0.5"/>
  <circle cx="337.979" cy="202.972" r="4" fill="#1f77b4" fill-opacity="0.85" stroke="#ffffff" stroke-width="0.5"/>
  <circle cx="366.852" cy="247.792" r="4" fill="#1f77b4" fill-opacity="0.85" stroke="#ffffff" stroke-width="0.5"/>
  <circle cx="430.951" cy="185.268" r="4" fill="#1f77b4" fill-opacity="0.85" stroke="#ffffff" stroke-width="0.5"/>
  <circle cx="435.571" cy="211.699" r="4" fill="#1f77b4" fill-opacity="0.85" stroke="#ffffff" stroke-width="0.5"/>
  <circle cx="320.655" cy="323.096" r="4" fill="#1f77b4" fill-opacity="0.85" stroke="#ffffff" stroke-width="0.5"/>
  <circle cx="294.669" cy="320.478" r="4" fill="#1f77b4" fill-opacity="0.85" stroke="#ffffff" stroke-width="0.5"/>
  <circle cx="396.303" cy="238.753" r="4" fill="#1f77b4" fill-opacity="0.85" stroke="#ffffff" stroke-width="0.5"/>
  <circle cx="211.514" cy="306.514" r="4" fill="#1f77b4" fill-opacity="0.85" stroke="#ffffff" stroke-width="0.5"/>
  <circle cx="153.767" cy="187.886" r="4" fill="#1f77b4" fill-opacity="0.85" stroke="#ffffff" stroke-width="0.5"/>
  <circle cx="335.669" cy="325.652" r="4" fill="#1f77b4" fill-opacity="0.85" stroke="#ffffff" stroke-width="0.5"/>
  <circle cx="135.288" cy="205.278" r="4" fill="#1f77b4" fill-opacity="0.85" stroke="#ffffff" stroke-width="0.5"/>
  <circle cx="219.021" cy="311.19" r="4" fill="#1f77b4" fill-opacity="0.85" stroke="#ffffff" stroke-width="0.5"/>
  <circle cx="380.711" cy="50.1818" r="4" fill="#1f77b4" fill-opacity="0.85" stroke="#ffffff" stroke-width="0.5"/>
  <circle cx="377.824" cy="225.912" r="4" fill="#1f77b4" fill-opacity="0.85" stroke="#ffffff" stroke-width="0.5"/>
  <circle cx="369.74" cy="50.1818" r="4" fill="#1f77b4" fill-opacity="0.85" stroke="#ffffff" stroke-width="0.5"/>
  <circle cx="399.768" cy="222.359" r="4" fill="#1f77b4" fill-opacity="0.85" stroke="#ffffff" stroke-width="0.5"/>
  <circle cx="158.964" cy="215.564" r="4" fill="#1f77b4" fill-opacity="0.85" stroke="#ffffff" stroke-width="0.5"/>
  <circle cx="384.754" cy="226.037" r="4" fill="#1f77b4" fill-opacity="0.85" stroke="#ffffff" stroke-width="0.5"/>
  <circle cx="432.106" cy="293.922" r="4" fill="#1f77b4" fill-opacity="0.85" stroke="#ffffff" stroke-width="0.5"/>
  <circle cx="374.937" cy="221.611" r="4" fill="#1f77b4" fill-opacity="0.85" stroke="#ffffff" stroke-width="0.5"/>
  <circle cx="216.133" cy="240.437" r="4" fill="#1f77b4" fill-opacity="0.85" stroke="#ffffff" stroke-width="0.5"/>
  <circle cx="171.669" cy="247.294" r="4" fill="#1f77b4" fill-opacity="0.85" stroke="#ffffff" stroke-width="0.5"/>
  <circle cx="146.838" cy="201.413" r="4" fill="#1f77b4" fill-opacity="0.85" stroke="#ffffff" stroke-width="0.5"/>
  <circle cx="280.232" cy="304.831" r="4" fill="#1f77b4" fill-opacity="0.85" stroke="#ffffff" stroke-width="0.5"/>
  <circle cx="377.247" cy="291.242" r="4" fill="#1f77b4" fill-opacity="0.85" stroke="#ffffff" stroke-width="0.5"/>
  <circle cx="138.176" cy="50.1818" r="4" fill="#1f77b4" fill-opacity="0.85" stroke="#ffffff" stroke-width="0.5"/>
  <circle cx="378.402" cy="259.45" r="4" fill="#1f77b4" fill-opacity="0.85" stroke="#ffffff" stroke-width="0.5"/>
  <circle cx="179.176" cy="280.146" r="4" fill="#1f77b4" fill-opacity="0.85" stroke="#ffffff" stroke-width="0.5"/>
  <circle cx="213.824" cy="261.195" r="4" fill="#1f77b4" fill-opacity="0.85" stroke="#ffffff" stroke-width="0.5"/>
  <circle cx="287.739" cy="291.74" r="4" fill="#1f77b4" fill-opacity="0.85" stroke="#ffffff" stroke-width="0.5"/>
  <circle cx="173.401" cy="280.333" r="4" fill="#1f77b4" fill-opacity="0.85" stroke="#ffffff" stroke-width="0.5"/>
  <circle cx="445.965" cy="270.234" r="4" fill="#1f77b4" fill-opacity="0.85" stroke="#ffffff" stroke-width="0.5"/>
  <circle cx="391.683" cy="238.317" r="4" fill="#1f77b4" fill-opacity="0.85" stroke="#ffffff" stroke-width="0.5"/>
  <circle cx="155.5" cy="50.1818" r="4" fill="#1f77b4" fill-opacity="0.85" stroke="#ffffff" stroke-width="0.5"/>
  <circle cx="286.007" cy="287.501" r="4" fill="#1f77b4" fill-opacity="0.85" stroke="#ffffff" stroke-width="0.5"/>
  <circle cx="429.219" cy="198.234" r="4" fill="#1f77b4" fill-opacity="0.85" stroke="#ffffff" stroke-width="0.5"/>
  <circle cx="176.288" cy="225.912" r="4" fill="#1f77b4" fill-opacity="0.85" stroke="#ffffff" stroke-width="0.5"/>
  <circle cx="165.316" cy="312.873" r="4" fill="#1f77b4" fill-opacity="0.85" stroke="#ffffff" stroke-width="0.5"/>
  <circle cx="164.162" cy="120.998" r="4" fill="#1f77b4" fill-opacity="0.85" stroke="#ffffff" stroke-width="0.5"/>
  <circle cx="370.317" cy="211.325" r="4" fill="#1f77b4" fill-opacity="0.85" stroke="#ffffff" stroke-width="0.5"/>
  <circle cx="146.26" cy="221.112" r="4" fill="#1f77b4" fill-opacity="0.85" stroke="#ffffff" stroke-width="0.5"/>
  <circle cx="387.064" cy="232.146" r="4" fill="#1f77b4" fill-opacity="0.85" stroke="#ffffff" stroke-width="0.5"/>
  <circle cx="285.429" cy="314.743" r="4" fill="#1f77b4" fill-opacity="0.85" stroke="#ffffff" stroke-width="0.5"/>
  <circle cx="295.824" cy="286.566" r="4" fill="#1f77b4" fill-opacity="0.85" stroke="#ffffff" stroke-width="0.5"/>
  <circle cx="381.289" cy="56.2292" r="4" fill="#1f77b4" fill-opacity="0.85" stroke="#ffffff" stroke-width="0.5"/>
  <circle cx="387.064" cy="142.816" r="4" fill="#1f77b4" fill-opacity="0.85" stroke="#ffffff" stroke-width="0.5"/>
  <circle cx="432.106" cy="253.465" r="4" fill="#1f77b4" fill-opacity="0.85" stroke="#ffffff" stroke-width="0.5"/>
  <circle cx="202.274" cy="302.649" r="4" fill="#1f77b4" fill-opacity="0.85" stroke="#ffffff" stroke-width="0.5"/>
  <circle cx="384.754" cy="208.707" r="4" fill="#1f77b4" fill-opacity="0.85" stroke="#ffffff" stroke-width="0.5"/>
  <circle cx="369.74" cy="50.1818" r="4" fill="#1f77b4" fill-opacity="0.85" stroke="#ffffff" stroke-width="0.5"/>
  <circle cx="190.725" cy="290.618" r="4" fill="#1f77b4" fill-opacity="0.85" stroke="#ffffff" stroke-width="0.5"/>
  <circle cx="142.795" cy="262.878" r="4" fill="#1f77b4" fill-opacity="0.85" stroke="#ffffff" stroke-width="0.5"/>
  <circle cx="448.275" cy="207.398" r="4" fill="#1f77b4" fill-opacity="0.85" stroke="#ffffff" stroke-width="0.5"/>
  <circle cx="150.302" cy="239.065" r="4" fill="#1f77b4" fill-opacity="0.85" stroke="#ffffff" stroke-width="0.5"/>
  <circle cx="191.302" cy="307.325" r="4" fill="#1f77b4" fill-opacity="0.85" stroke="#ffffff" stroke-width="0.5"/>
  <circle cx="220.176" cy="277.34" r="4" fill="#1f77b4" fill-opacity="0.85" stroke="#ffffff" stroke-width="0.5"/>
  <circle cx="445.388" cy="254.899" r="4" fill="#1f77b4" fill-opacity="0.85" stroke="#ffffff" stroke-width="0.5"/>
  <circle cx="410.162" cy="268.364" r="4" fill="#1f77b4" fill-opacity="0.85" stroke="#ffffff" stroke-width="0.5"/>
  <circle cx="371.472" cy="251.346" r="4" fill="#1f77b4" fill-opacity="0.85" stroke="#ffffff" stroke-width="0.5"/>
  <circle cx="194.19" cy="293.735" r="4" fill="#1f77b4" fill-opacity="0.85" stroke="#ffffff" stroke-width="0.5"/>
  <circle cx="436.148" cy="157.029" r="4" fill="#1f77b4" fill-opacity="0.85" stroke="#ffffff" stroke-width="0.5"/>
  <circle cx="145.105" cy="167.751" r="4" fill="#1f77b4" fill-opacity="0.85" stroke="#ffffff" stroke-width="0.5"/>
  <circle cx="401.5" cy="182.026" r="4" fill="#1f77b4" fill-opacity="0.85" stroke="#ffffff" stroke-width="0.5"/>
  <circle cx="307.373" cy="292.177" r="4" fill="#1f77b4" fill-opacity="0.85" stroke="#ffffff" stroke-width="0.5"/>
  <circle cx="134.133" cy="166.006" r="4" fill="#1f77b4" fill-opacity="0.85" stroke="#ffffff" stroke-width="0.5"/>
  <circle cx="429.219" cy="244.987" r="4" fill="#1f77b4" fill-opacity="0.85" stroke="#ffffff" stroke-width="0.5"/>
  <circle cx="238.655" cy="217.434" r="4" fill="#1f77b4" fill-opacity="0.85" stroke="#ffffff" stroke-width="0.5"/>
  <circle cx="445.965" cy="247.107" r="4" fill="#1f77b4" fill-opacity="0.85" stroke="#ffffff" stroke-width="0.5"/>
  <circle cx="381.866" cy="263.377" r="4" fill="#1f77b4" fill-opacity="0.85" stroke="#ffffff" stroke-width="0.5"/>
  <circle cx="368.585" cy="217.995" r="4" fill="#1f77b4" fill-opacity="0.85" stroke="#ffffff" stroke-width="0.5"/>
  <circle cx="441.345" cy="277.216" r="4" fill="#1f77b4" fill-opacity="0.85" stroke="#ffffff" stroke-width="0.5"/>
  <circle cx="185.528" cy="219.366" r="4" fill="#1f77b4" fill-opacity="0.85" stroke="#ffffff" stroke-width="0.5"/>
  <circle cx="404.387" cy="54.5461" r="4" fill="#1f77b4" fill-opacity="0.85" stroke="#ffffff" stroke-width="0.5"/>
  <circle cx="375.514" cy="191.439" r="4" fill="#1f77b4" fill-opacity="0.85" stroke="#ffffff" stroke-width="0.5"/>
  <circle cx="409.007" cy="281.579" r="4" fill="#1f77b4" fill-opacity="0.85" stroke="#ffffff" stroke-width="0.5"/>
  <circle cx="375.514" cy="285.631" r="4" fill="#1f77b4" fill-opacity="0.85" stroke="#ffffff" stroke-width="0.5"/>
  <circle cx="288.894" cy="325.839" r="4" fill="#1f77b4" fill-opacity="0.85" stroke="#ffffff" stroke-width="0.5"/>
  <circle cx="407.275" cy="95.7512" r="4" fill="#1f77b4" fill-opacity="0.85" stroke="#ffffff" stroke-width="0.5"/>
  <circle cx="376.669" cy="249.85" r="4" fill="#1f77b4" fill-opacity="0.85" stroke="#ffffff" stroke-width="0.5"/>
  <circle cx="164.162" cy="204.405" r="4" fill="#1f77b4" fill-opacity="0.85" stroke="#ffffff" stroke-width="0.5"/>
  <circle cx="382.444" cy="274.411" r="4" fill="#1f77b4" fill-opacity="0.85" stroke="#ffffff" stroke-width="0.5"/>
  <circle cx="385.909" cy="247.231" r="4" fill="#1f77b4" fill-opacity="0.85" stroke="#ffffff" stroke-width="0.5"/>
  <circle cx="137.598" cy="109.341" r="4" fill="#1f77b4" fill-opacity="0.85" stroke="#ffffff" stroke-width="0.5"/>
  <circle cx="413.049" cy="239.938" r="4" fill="#1f77b4" fill-opacity="0.85" stroke="#ffffff" stroke-width="0.5"/>
  <circle cx="425.754" cy="296.727" r="4" fill="#1f77b4" fill-opacity="0.85" stroke="#ffffff" stroke-width="0.5"/>
  <circle cx="429.219" cy="241.87" r="4" fill="#1f77b4" fill-opacity="0.85" stroke="#ffffff" stroke-width="0.5"/>
  <circle cx="132.978" cy="86.8992" r="4" fill="#1f77b4" fill-opacity="0.85" stroke="#ffffff" stroke-width="0.5"/>
  <circle cx="404.965" cy="165.133" r="4" fill="#1f77b4" fill-opacity="0.85" stroke="#ffffff" stroke-width="0.5"/>
  <circle cx="157.232" cy="217.185" r="4" fill="#1f77b4" fill-opacity="0.85" stroke="#ffffff" stroke-width="0.5"/>
  <circle cx="377.824" cy="156.468" r="4" fill="#1f77b4" fill-opacity="0.85" stroke="#ffffff" stroke-width="0.5"/>
  <circle cx="199.387" cy="310.753" r="4" fill="#1f77b4" fill-opacity="0.85" stroke="#ffffff" stroke-width="0.5"/>
  <circle cx="398.613" cy="80.9148" r="4" fill="#1f77b4" fill-opacity="0.85" stroke="#ffffff" stroke-width="0.5"/>
  <circle cx="236.922" cy="267.304" r="4" fill="#1f77b4" fill-opacity="0.85" stroke="#ffffff" stroke-width="0.5"/>
  <circle cx="436.148" cy="289.185" r="4" fill="#1f77b4" fill-opacity="0.85" stroke="#ffffff" stroke-width="0.5"/>
  <circle cx="166.471" cy="283.948" r="4" fill="#1f77b4" fill-opacity="0.85" stroke="#ffffff" stroke-width="0.5"/>
  <circle cx="296.401" cy="287.813" r="4" fill="#1f77b4" fill-opacity="0.85" stroke="#ffffff" stroke-width="0.5"/>
  <circle cx="152.035" cy="308.821" r="4" fill="#1f77b4" fill-opacity="0.85" stroke="#ffffff" stroke-width="0.5"/>
  <circle cx="165.316" cy="205.341" r="4" fill="#1f77b4" fill-opacity="0.85" stroke="#ffffff" stroke-width="0.5"/>
  <circle cx="295.246" cy="309.756" r="4" fill="#1f77b4" fill-opacity="0.85" stroke="#ffffff" stroke-width="0.5"/>
  <circle cx="186.683" cy="317.174" r="4" fill="#1f77b4" fill-opacity="0.85" stroke="#ffffff" stroke-width="0.5"/>
  <circle cx="404.965" cy="180.281" r="4" fill="#1f77b4" fill-opacity="0.85" stroke="#ffffff" stroke-width="0.5"/>
  <circle cx="385.331" cy="165.694" r="4" fill="#1f77b4" fill-opacity="0.85" stroke="#ffffff" stroke-width="0.5"/>
  <circle cx="193.035" cy="277.34" r="4" fill="#1f77b4" fill-opacity="0.85" stroke="#ffffff" stroke-width="0.5"/>
  <circle cx="232.88" cy="316.488" r="4" fill="#1f77b4" fill-opacity="0.85" stroke="#ffffff" stroke-width="0.5"/>
  <circle cx="361.655" cy="234.889" r="4" fill="#1f77b4" fill-opacity="0.85" stroke="#ffffff" stroke-width="0.5"/>
  <circle cx="146.838" cy="290.182" r="4" fill="#1f77b4" fill-opacity="0.85" stroke="#ffffff" stroke-width="0.5"/>
  <circle cx="398.035" cy="167.938" r="4" fill="#1f77b4" fill-opacity="0.85" stroke="#ffffff" stroke-width="0.5"/>
  <circle cx="157.232" cy="200.229" r="4" fill="#1f77b4" fill-opacity="0.85" stroke="#ffffff" stroke-width="0.5"/>
  <circle cx="380.711" cy="276.842" r="4" fill="#1f77b4" fill-opacity="0.85" stroke="#ffffff" stroke-width="0.5"/>
  <circle cx="368.007" cy="149.424" r="4" fill="#1f77b4" fill-opacity="0.85" stroke="#ffffff" stroke-width="0.5"/>
  <circle cx="381.866" cy="181.091" r="4" fill="#1f77b4" fill-opacity="0.85" stroke="#ffffff" stroke-width="0.5"/>
  <circle cx="135.288" cy="112.52" r="4" fill="#1f77b4" fill-opacity="0.85" stroke="#ffffff" stroke-width="0.5"/>
  <circle cx="265.796" cy="227.72" r="4" fill="#1f77b4" fill-opacity="0.85" stroke="#ffffff" stroke-width="0.5"/>
  <circle cx="374.359" cy="282.078" r="4" fill="#1f77b4" fill-opacity="0.85" stroke="#ffffff" stroke-width="0.5"/>
  <circle cx="173.401" cy="285.507" r="4" fill="#1f77b4" fill-opacity="0.85" stroke="#ffffff" stroke-width="0.5"/>
  <circle cx="294.091" cy="187.824" r="4" fill="#1f77b4" fill-opacity="0.85" stroke="#ffffff" stroke-width="0.5"/>
  <circle cx="362.81" cy="125.237" r="4" fill="#1f77b4" fill-opacity="0.85" stroke="#ffffff" stroke-width="0.5"/>
  <circle cx="155.5" cy="304.707" r="4" fill="#1f77b4" fill-opacity="0.85" stroke="#ffffff" stroke-width="0.5"/>
  <circle cx="145.683" cy="260.572" r="4" fill="#1f77b4" fill-opacity="0.85" stroke="#ffffff" stroke-width="0.5"/>
  <circle cx="378.402" cy="226.161" r="4" fill="#1f77b4" fill-opacity="0.85" stroke="#ffffff" stroke-width="0.5"/>
  <circle cx="205.162" cy="266.618" r="4" fill="#1f77b4" fill-opacity="0.85" stroke="#ffffff" stroke-width="0.5"/>
  <circle cx="143.373" cy="317.049" r="4" fill="#1f77b4" fill-opacity="0.85" stroke="#ffffff" stroke-width="0.5"/>
  <circle cx="163.007" cy="182.837" r="4" fill="#1f77b4" fill-opacity="0.85" stroke="#ffffff" stroke-width="0.5"/>
  <circle cx="118.542" cy="268.925" r="4" fill="#1f77b4" fill-opacity="0.85" stroke="#ffffff" stroke-width="0.5"/>
  <circle cx="374.937" cy="144.125" r="4" fill="#1f77b4" fill-opacity="0.85" stroke="#ffffff" stroke-width="0.5"/>
  <circle cx="388.796" cy="262.629" r="4" fill="#1f77b4" fill-opacity="0.85" stroke="#ffffff" stroke-width="0.5"/>
  <circle cx="164.162" cy="185.143" r="4" fill="#1f77b4" fill-opacity="0.85" stroke="#ffffff" stroke-width="0.5"/>
  <circle cx="370.317" cy="144.561" r="4" fill="#1f77b4" fill-opacity="0.85" stroke="#ffffff" stroke-width="0.5"/>
  <circle cx="249.049" cy="310.13" r="4" fill="#1f77b4" fill-opacity="0.85" stroke="#ffffff" stroke-width="0.5"/>
  <circle cx="385.331" cy="259.699" r="4" fill="#1f77b4" fill-opacity="0.85" stroke="#ffffff" stroke-width="0.5"/>
  <circle cx="393.416" cy="260.946" r="4" fill="#1f77b4" fill-opacity="0.85" stroke="#ffffff" stroke-width="0.5"/>
  <circle cx="297.556" cy="325.714" r="4" fill="#1f77b4" fill-opacity="0.85" stroke="#ffffff" stroke-width="0.5"/>
  <circle cx="172.824" cy="274.785" r="4" fill="#1f77b4" fill-opacity="0.85" stroke="#ffffff" stroke-width="0.5"/>
  <circle cx="365.697" cy="149.611" r="4" fill="#1f77b4" fill-opacity="0.85" stroke="#ffffff" stroke-width="0.5"/>
  <circle cx="286.007" cy="144.811" r="4" fill="#1f77b4" fill-opacity="0.85" stroke="#ffffff" stroke-width="0.5"/>
  <circle cx="188.993" cy="226.722" r="4" fill="#1f77b4" fill-opacity="0.85" stroke="#ffffff" stroke-width="0.5"/>
  <circle cx="192.457" cy="321.101" r="4" fill="#1f77b4" fill-opacity="0.85" stroke="#ffffff" stroke-width="0.5"/>
  <circle cx="371.472" cy="174.857" r="4" fill="#1f77b4" fill-opacity="0.85" stroke="#ffffff" stroke-width="0.5"/>
  <circle cx="198.809" cy="281.143" r="4" fill="#1f77b4" fill-opacity="0.85" stroke="#ffffff" stroke-width="0.5"/>
  <circle cx="377.824" cy="294.234" r="4" fill="#1f77b4" fill-opacity="0.85" stroke="#ffffff" stroke-width="0.5"/>
  <circle cx="366.852" cy="244.738" r="4" fill="#1f77b4" fill-opacity="0.85" stroke="#ffffff" stroke-width="0.5"/>
  <circle cx="375.514" cy="193.559" r="4" fill="#1f77b4" fill-opacity="0.85" stroke="#ffffff" stroke-width="0.5"/>
  <circle cx="387.641" cy="215.003" r="4" fill="#1f77b4" fill-opacity="0.85" stroke="#ffffff" stroke-width="0.5"/>
  <circle cx="163.584" cy="83.907" r="4" fill="#1f77b4" fill-opacity="0.85" stroke="#ffffff" stroke-width="0.5"/>
  <circle cx="447.12" cy="303.023" r="4" fill="#1f77b4" fill-opacity="0.85" stroke="#ffffff" stroke-width="0.5"/>
  <circle cx="194.767" cy="275.969" r="4" fill="#1f77b4" fill-opacity="0.85" stroke="#ffffff" stroke-width="0.5"/>
  <circle cx="395.148" cy="241.808" r="4" fill="#1f77b4" fill-opacity="0.85" stroke="#ffffff" stroke-width="0.5"/>
  <circle cx="376.669" cy="286.192" r="4" fill="#1f77b4" fill-opacity="0.85" stroke="#ffffff" stroke-width="0.5"/>
  <circle cx="250.781" cy="277.59" r="4" fill="#1f77b4" fill-opacity="0.85" stroke="#ffffff" stroke-width="0.5"/>
  <circle cx="362.232" cy="277.029" r="4" fill="#1f77b4" fill-opacity="0.85" stroke="#ffffff" stroke-width="0.5"/>
  <circle cx="323.542" cy="244.987" r="4" fill="#1f77b4" fill-opacity="0.85" stroke="#ffffff" stroke-width="0.5"/>
  <circle cx="200.542" cy="280.457" r="4" fill="#1f77b4" fill-opacity="0.85" stroke="#ffffff" stroke-width="0.5"/>
  <circle cx="197.655" cy="313.87" r="4" fill="#1f77b4" fill-opacity="0.85" stroke="#ffffff" stroke-width="0.5"/>
  <circle cx="134.711" cy="113.517" r="4" fill="#1f77b4" fill-opacity="0.85" stroke="#ffffff" stroke-width="0.5"/>
  <circle cx="390.528" cy="183.709" r="4" fill="#1f77b4" fill-opacity="0.85" stroke="#ffffff" stroke-width="0.5"/>
  <circle cx="389.951" cy="248.166" r="4" fill="#1f77b4" fill-opacity="0.85" stroke="#ffffff" stroke-width="0.5"/>
  <circle cx="385.331" cy="137.019" r="4" fill="#1f77b4" fill-opacity="0.85" stroke="#ffffff" stroke-width="0.5"/>
  <circle cx="380.711" cy="256.644" r="4" fill="#1f77b4" fill-opacity="0.85" stroke="#ffffff" stroke-width="0.5"/>
  <circle cx="152.612" cy="243.179" r="4" fill="#1f77b4" fill-opacity="0.85" stroke="#ffffff" stroke-width="0.5"/>
  <circle cx="195.345" cy="316.301" r="4" fill="#1f77b4" fill-opacity="0.85" stroke="#ffffff" stroke-width="0.5"/>
  <circle cx="413.049" cy="212.696" r="4" fill="#1f77b4" fill-opacity="0.85" stroke="#ffffff" stroke-width="0.5"/>
  <circle cx="448.852" cy="245.112" r="4" fill="#1f77b4" fill-opacity="0.85" stroke="#ffffff" stroke-width="0.5"/>
  <circle cx="164.739" cy="239.127" r="4" fill="#1f77b4" fill-opacity="0.85" stroke="#ffffff" stroke-width="0.5"/>
  <circle cx="216.711" cy="288.873" r="4" fill="#1f77b4" fill-opacity="0.85" stroke="#ffffff" stroke-width="0.5"/>
  <circle cx="215.556" cy="272.478" r="4" fill="#1f77b4" fill-opacity="0.85" stroke="#ffffff" stroke-width="0.5"/>
  <circle cx="368.585" cy="276.842" r="4" fill="#1f77b4" fill-opacity="0.85" stroke="#ffffff" stroke-width="0.5"/>
  <circle cx="435.571" cy="50.1818" r="4" fill="#1f77b4" fill-opacity="0.85" stroke="#ffffff" stroke-width="0.5"/>
  <circle cx="149.147" cy="276.655" r="4" fill="#1f77b4" fill-opacity="0.85" stroke="#ffffff" stroke-width="0.5"/>
  <circle cx="286.007" cy="311.314" r="4" fill="#1f77b4" fill-opacity="0.85" stroke="#ffffff" stroke-width="0.5"/>
  <circle cx="161.274" cy="182.587" r="4" fill="#1f77b4" fill-opacity="0.85" stroke="#ffffff" stroke-width="0.5"/>
  <circle cx="362.232" cy="156.655" r="4" fill="#1f77b4" fill-opacity="0.85" stroke="#ffffff" stroke-width="0.5"/>
  <circle cx="395.725" cy="267.865" r="4" fill="#1f77b4" fill-opacity="0.85" stroke="#ffffff" stroke-width="0.5"/>
  <circle cx="369.162" cy="227.844" r="4" fill="#1f77b4" fill-opacity="0.85" stroke="#ffffff" stroke-width="0.5"/>
  <circle cx="403.81" cy="130.161" r="4" fill="#1f77b4" fill-opacity="0.85" stroke="#ffffff" stroke-width="0.5"/>
  <circle cx="163.007" cy="178.411" r="4" fill="#1f77b4" fill-opacity="0.85" stroke="#ffffff" stroke-width="0.5"/>
  <circle cx="295.246" cy="310.13" r="4" fill="#1f77b4" fill-opacity="0.85" stroke="#ffffff" stroke-width="0.5"/>
  <circle cx="402.655" cy="132.281" r="4" fill="#1f77b4" fill-opacity="0.85" stroke="#ffffff" stroke-width="0.5"/>
  <circle cx="89.0909" cy="321.6" r="4" fill="#1f77b4" fill-opacity="0.85" stroke="#ffffff" stroke-width="0.5"/>
  <circle cx="441.345" cy="237.756" r="4" fill="#1f77b4" fill-opacity="0.85" stroke="#ffffff" stroke-width="0.5"/>
  <circle cx="143.95" cy="324.218" r="4" fill="#1f77b4" fill-opacity="0.85" stroke="#ffffff" stroke-width="0.5"/>
  <circle cx="249.627" cy="299.533" r="4" fill="#1f77b4" fill-opacity="0.85" stroke="#ffffff" stroke-width="0.5"/>
  <circle cx="389.373" cy="256.894" r="4" fill="#1f77b4" fill-opacity="0.85" stroke="#ffffff" stroke-width="0.5"/>
  <circle cx="381.289" cy="257.392" r="4" fill="#1f77b4" fill-opacity="0.85" stroke="#ffffff" stroke-width="0.5"/>
  <circle cx="377.824" cy="286.629" r="4" fill="#1f77b4" fill-opacity="0.85" stroke="#ffffff" stroke-width="0.5"/>
  <circle cx="396.88" cy="190.442" r="4" fill="#1f77b4" fill-opacity="0.85" stroke="#ffffff" stroke-width="0.5"/>
  <circle cx="441.923" cy="257.953" r="4" fill="#1f77b4" fill-opacity="0.85" stroke="#ffffff" stroke-width="0.5"/>
  <circle cx="372.049" cy="291.117" r="4" fill="#1f77b4" fill-opacity="0.85" stroke="#ffffff" stroke-width="0.5"/>
  <circle cx="216.711" cy="262.878" r="4" fill="#1f77b4" fill-opacity="0.85" stroke="#ffffff" stroke-width="0.5"/>
  <circle cx="135.288" cy="128.104" r="4" fill="#1f77b4" fill-opacity="0.85" stroke="#ffffff" stroke-width="0.5"/>
  <circle cx="372.627" cy="81.3512" r="4" fill="#1f77b4" fill-opacity="0.85" stroke="#ffffff" stroke-width="0.5"/>
  <circle cx="156.654" cy="195.803" r="4" fill="#1f77b4" fill-opacity="0.85" stroke="#ffffff" stroke-width="0.5"/>
  <circle cx="384.754" cy="249.6" r="4" fill="#1f77b4" fill-opacity="0.85" stroke="#ffffff" stroke-width="0.5"/>
  <circle cx="208.049" cy="272.229" r="4" fill="#1f77b4" fill-opacity="0.85" stroke="#ffffff" stroke-width="0.5"/>
  <circle cx="433.838" cy="292.177" r="4" fill="#1f77b4" fill-opacity="0.85" stroke="#ffffff" stroke-width="0.5"/>
  <circle cx="437.881" cy="293.174" r="4" fill="#1f77b4" fill-opacity="0.85" stroke="#ffffff" stroke-width="0.5"/>
  <circle cx="147.415" cy="85.5278" r="4" fill="#1f77b4" fill-opacity="0.85" stroke="#ffffff" stroke-width="0.5"/>
  <circle cx="166.471" cy="241.06" r="4" fill="#1f77b4" fill-opacity="0.85" stroke="#ffffff" stroke-width="0.5"/>
  <circle cx="410.162" cy="171.367" r="4" fill="#1f77b4" fill-opacity="0.85" stroke="#ffffff" stroke-width="0.5"/>
  <circle cx="146.26" cy="180.032" r="4" fill="#1f77b4" fill-opacity="0.85" stroke="#ffffff" stroke-width="0.5"/>
  <circle cx="201.119" cy="307.138" r="4" fill="#1f77b4" fill-opacity="0.85" stroke="#ffffff" stroke-width="0.5"/>
  <circle cx="367.43" cy="210.016" r="4" fill="#1f77b4" fill-opacity="0.85" stroke="#ffffff" stroke-width="0.5"/>
  <circle cx="291.782" cy="327.335" r="4" fill="#1f77b4" fill-opacity="0.85" stroke="#ffffff" stroke-width="0.5"/>
  <circle cx="373.204" cy="280.644" r="4" fill="#1f77b4" fill-opacity="0.85" stroke="#ffffff" stroke-width="0.5"/>
  <circle cx="445.388" cy="182.213" r="4" fill="#1f77b4" fill-opacity="0.85" stroke="#ffffff" stroke-width="0.5"/>
  <circle cx="398.035" cy="249.101" r="4" fill="#1f77b4" fill-opacity="0.85" stroke="#ffffff" stroke-width="0.5"/>
  <circle cx="171.091" cy="204.031" r="4" fill="#1f77b4" fill-opacity="0.85" stroke="#ffffff" stroke-width="0.5"/>
  <circle cx="186.105" cy="319.044" r="4" fill="#1f77b4" fill-opacity="0.85" stroke="#ffffff" stroke-width="0.5"/>
  <circle cx="544.712" cy="319.107" r="4" fill="#1f77b4" fill-opacity="0.85" stroke="#ffffff" stroke-width="0.5"/>
  <circle cx="443.655" cy="293.049" r="4" fill="#1f77b4" fill-opacity="0.85" stroke="#ffffff" stroke-width="0.5"/>
  <circle cx="154.345" cy="246.172" r="4" fill="#1f77b4" fill-opacity="0.85" stroke="#ffffff" stroke-width="0.5"/>
  <circle cx="287.162" cy="324.468" r="4" fill="#1f77b4" fill-opacity="0.85" stroke="#ffffff" stroke-width="0.5"/>
  <circle cx="384.754" cy="225.787" r="4" fill="#1f77b4" fill-opacity="0.85" stroke="#ffffff" stroke-width="0.5"/>
  <circle cx="482.345" cy="277.964" r="4" fill="#1f77b4" fill-opacity="0.85" stroke="#ffffff" stroke-width="0.5"/>
  <circle cx="147.415" cy="315.117" r="4" fill="#1f77b4" fill-opacity="0.85" stroke="#ffffff" stroke-width="0.5"/>
  <circle cx="156.654" cy="218.618" r="4" fill="#1f77b4" fill-opacity="0.85" stroke="#ffffff" stroke-width="0.5"/>
  <circle cx="152.612" cy="260.509" r="4" fill="#1f77b4" fill-opacity="0.85" stroke="#ffffff" stroke-width="0.5"/>
  <circle cx="202.274" cy="283.699" r="4" fill="#1f77b4" fill-opacity="0.85" stroke="#ffffff" stroke-width="0.5"/>
  <circle cx="362.232" cy="180.717" r="4" fill="#1f77b4" fill-opacity="0.85" stroke="#ffffff" stroke-width="0.5"/>
  <circle cx="332.782" cy="314.93" r="4" fill="#1f77b4" fill-opacity="0.85" stroke="#ffffff" stroke-width="0.5"/>
  <circle cx="124.894" cy="299.533" r="4" fill="#1f77b4" fill-opacity="0.85" stroke="#ffffff" stroke-width="0.5"/>
  <circle cx="137.021" cy="199.917" r="4" fill="#1f77b4" fill-opacity="0.85" stroke="#ffffff" stroke-width="0.5"/>
  <circle cx="359.923" cy="236.26" r="4" fill="#1f77b4" fill-opacity="0.85" stroke="#ffffff" stroke-width="0.5"/>
  <circle cx="265.796" cy="219.803" r="4" fill="#1f77b4" fill-opacity="0.85" stroke="#ffffff" stroke-width="0.5"/>
  <circle cx="368.585" cy="121.185" r="4" fill="#1f77b4" fill-opacity="0.85" stroke="#ffffff" stroke-width="0.5"/>
  <circle cx="377.247" cy="204.343" r="4" fill="#1f77b4" fill-opacity="0.85" stroke="#ffffff" stroke-width="0.5"/>
  <circle cx="400.923" cy="215.19" r="4" fill="#1f77b4" fill-opacity="0.85" stroke="#ffffff" stroke-width="0.5"/>
  <circle cx="175.711" cy="143.689" r="4" fill="#1f77b4" fill-opacity="0.85" stroke="#ffffff" stroke-width="0.5"/>
  <circle cx="444.81" cy="170.12" r="4" fill="#1f77b4" fill-opacity="0.85" stroke="#ffffff" stroke-width="0.5"/>
  <circle cx="357.035" cy="154.224" r="4" fill="#1f77b4" fill-opacity="0.85" stroke="#ffffff" stroke-width="0.5"/>
  <circle cx="104.105" cy="266.431" r="4" fill="#1f77b4" fill-opacity="0.85" stroke="#ffffff" stroke-width="0.5"/>
  <circle cx="366.852" cy="267.117" r="4" fill="#1f77b4" fill-opacity="0.85" stroke="#ffffff" stroke-width="0.5"/>
  <circle cx="590.909" cy="333.818" r="4" fill="#1f77b4" fill-opacity="0.85" stroke="#ffffff" stroke-width="0.5"/>
  <circle cx="183.218" cy="321.662" r="4" fill="#1f77b4" fill-opacity="0.85" stroke="#ffffff" stroke-width="0.5"/>
  <circle cx="169.359" cy="111.086" r="4" fill="#1f77b4" fill-opacity="0.85" stroke="#ffffff" stroke-width="0.5"/>
  <circle cx="438.458" cy="258.39" r="4" fill="#1f77b4" fill-opacity="0.85" stroke="#ffffff" stroke-width="0.5"/>
  <circle cx="377.247" cy="300.842" r="4" fill="#1f77b4" fill-opacity="0.85" stroke="#ffffff" stroke-width="0.5"/>
  <circle cx="208.049" cy="276.156" r="4" fill="#1f77b4" fill-opacity="0.85" stroke="#ffffff" stroke-width="0.5"/>
  <circle cx="395.725" cy="242.556" r="4" fill="#1f77b4" fill-opacity="0.85" stroke="#ffffff" stroke-width="0.5"/>
  <circle cx="437.881" cy="288.81" r="4" fill="#1f77b4" fill-opacity="0.85" stroke="#ffffff" stroke-width="0.5"/>
  <circle cx="388.218" cy="129.974" r="4" fill="#1f77b4" fill-opacity="0.85" stroke="#ffffff" stroke-width="0.5"/>
  <circle cx="149.147" cy="279.273" r="4" fill="#1f77b4" fill-opacity="0.85" stroke="#ffffff" stroke-width="0.5"/>
  <circle cx="165.316" cy="208.27" r="4" fill="#1f77b4" fill-opacity="0.85" stroke="#ffffff" stroke-width="0.5"/>
  <circle cx="376.092" cy="225.413" r="4" fill="#1f77b4" fill-opacity="0.85" stroke="#ffffff" stroke-width="0.5"/>
  <circle cx="375.514" cy="185.642" r="4" fill="#1f77b4" fill-opacity="0.85" stroke="#ffffff" stroke-width="0.5"/>
  <circle cx="120.852" cy="327.584" r="4" fill="#1f77b4" fill-opacity="0.85" stroke="#ffffff" stroke-width="0.5"/>
  <circle cx="384.176" cy="258.639" r="4" fill="#1f77b4" fill-opacity="0.85" stroke="#ffffff" stroke-width="0.5"/>
  <circle cx="136.443" cy="189.694" r="4" fill="#1f77b4" fill-opacity="0.85" stroke="#ffffff" stroke-width="0.5"/>
  <circle cx="340.289" cy="323.595" r="4" fill="#1f77b4" fill-opacity="0.85" stroke="#ffffff" stroke-width="0.5"/>
  <circle cx="324.697" cy="219.179" r="4" fill="#1f77b4" fill-opacity="0.85" stroke="#ffffff" stroke-width="0.5"/>
  <circle cx="394.571" cy="202.411" r="4" fill="#1f77b4" fill-opacity="0.85" stroke="#ffffff" stroke-width="0.5"/>
  <circle cx="163.007" cy="152.478" r="4" fill="#1f77b4" fill-opacity="0.85" stroke="#ffffff" stroke-width="0.5"/>
  <circle cx="136.443" cy="50.1818" r="4" fill="#1f77b4" fill-opacity="0.85" stroke="#ffffff" stroke-width="0.5"/>
  <circle cx="372.049" cy="143.439" r="4" fill="#1f77b4" fill-opacity="0.85" stroke="#ffffff" stroke-width="0.5"/>
  <circle cx="395.148" cy="244.426" r="4" fill="#1f77b4" fill-opacity="0.85" stroke="#ffffff" stroke-width="0.5"/>
  <circle cx="160.119" cy="50.1818" r="4" fill="#1f77b4" fill-opacity="0.85" stroke="#ffffff" stroke-width="0.5"/>
  <circle cx="251.359" cy="277.901" r="4" fill="#1f77b4" fill-opacity="0.85" stroke="#ffffff" stroke-width="0.5"/>
  <circle cx="366.275" cy="77.4863" r="4" fill="#1f77b4" fill-opacity="0.85" stroke="#ffffff" stroke-width="0.5"/>
  <circle cx="169.936" cy="264.125" r="4" fill="#1f77b4" fill-opacity="0.85" stroke="#ffffff" stroke-width="0.5"/>
  <circle cx="393.416" cy="277.839" r="4" fill="#1f77b4" fill-opacity="0.85" stroke="#ffffff" stroke-width="0.5"/>
  <circle cx="362.81" cy="50.1818" r="4" fill="#1f77b4" fill-opacity="0.85" stroke="#ffffff" stroke-width="0.5"/>
  <circle cx="379.556" cy="94.3797" r="4" fill="#1f77b4" fill-opacity="0.85" stroke="#ffffff" stroke-width="0.5"/>
  <circle cx="372.049" cy="278.649" r="4" fill="#1f77b4" fill-opacity="0.85" stroke="#ffffff" stroke-width="0.5"/>
  <circle cx="373.204" cy="295.605" r="4" fill="#1f77b4" fill-opacity="0.85" stroke="#ffffff" stroke-width="0.5"/>
  <circle cx="371.472" cy="125.611" r="4" fill="#1f77b4" fill-opacity="0.85" stroke="#ffffff" stroke-width="0.5"/>
  <circle cx="452.317" cy="313.558" r="4" fill="#1f77b4" fill-opacity="0.85" stroke="#ffffff" stroke-width="0.5"/>
  <circle cx="212.091" cy="223.169" r="4" fill="#1f77b4" fill-opacity="0.85" stroke="#ffffff" stroke-width="0.5"/>
  <circle cx="377.824" cy="289.683" r="4" fill="#1f77b4" fill-opacity="0.85" stroke="#ffffff" stroke-width="0.5"/>
  <circle cx="374.937" cy="225.102" r="4" fill="#1f77b4" fill-opacity="0.85" stroke="#ffffff" stroke-width="0.5"/>
  <circle cx="162.429" cy="98.5564" r="4" fill="#1f77b4" fill-opacity="0.85" stroke="#ffffff" stroke-width="0.5"/>
  <circle cx="229.415" cy="289.122" r="4" fill="#1f77b4" fill-opacity="0.85" stroke="#ffffff" stroke-width="0.5"/>
  <circle cx="442.5" cy="260.821" r="4" fill="#1f77b4" fill-opacity="0.85" stroke="#ffffff" stroke-width="0.5"/>
  <circle cx="163.584" cy="174.67" r="4" fill="#1f77b4" fill-opacity="0.85" stroke="#ffffff" stroke-width="0.5"/>
  <circle cx="134.711" cy="99.2421" r="4" fill="#1f77b4" fill-opacity="0.85" stroke="#ffffff" stroke-width="0.5"/>
  <circle cx="164.162" cy="202.66" r="4" fill="#1f77b4" fill-opacity="0.85" stroke="#ffffff" stroke-width="0.5"/>
  <circle cx="194.19" cy="293.423" r="4" fill="#1f77b4" fill-opacity="0.85" stroke="#ffffff" stroke-width="0.5"/>
  <circle cx="132.401" cy="190.941" r="4" fill="#1f77b4" fill-opacity="0.85" stroke="#ffffff" stroke-width="0.5"/>
  <circle cx="155.5" cy="50.1818" r="4" fill="#1f77b4" fill-opacity="0.85" stroke="#ffffff" stroke-width="0.5"/>
  <circle cx="402.078" cy="217.496" r="4" fill="#1f77b4" fill-opacity="0.85" stroke="#ffffff" stroke-width="0.5"/>
  <circle cx="376.092" cy="253.465" r="4" fill="#1f77b4" fill-opacity="0.85" stroke="#ffffff" stroke-width="0.5"/>
  <circle cx="440.768" cy="244.987" r="4" fill="#1f77b4" fill-opacity="0.85" stroke="#ffffff" stroke-width="0.5"/>
  <circle cx="183.795" cy="301.278" r="4" fill="#1f77b4" fill-opacity="0.85" stroke="#ffffff" stroke-width="0.5"/>
  <circle cx="357.613" cy="189.444" r="4" fill="#1f77b4" fill-opacity="0.85" stroke="#ffffff" stroke-width="0.5"/>
  <circle cx="160.697" cy="157.59" r="4" fill="#1f77b4" fill-opacity="0.85" stroke="#ffffff" stroke-width="0.5"/>
  <circle cx="310.26" cy="322.41" r="4" fill="#1f77b4" fill-opacity="0.85" stroke="#ffffff" stroke-width="0.5"/>
  <circle cx="381.289" cy="274.224" r="4" fill="#1f77b4" fill-opacity="0.85" stroke="#ffffff" stroke-width="0.5"/>
  <circle cx="132.978" cy="174.296" r="4" fill="#1f77b4" fill-opacity="0.85" stroke="#ffffff" stroke-width="0.5"/>
  <circle cx="532.585" cy="301.839" r="4" fill="#1f77b4" fill-opacity="0.85" stroke="#ffffff" stroke-width="0.5"/>
  <circle cx="133.556" cy="139.761" r="4" fill="#1f77b4" fill-opacity="0.85" stroke="#ffffff" stroke-width="0.5"/>
</svg>
